<svg width="29" height="27" viewBox="0 0 29 27" fill="none" xmlns="http://www.w3.org/2000/svg">
<rect x="1.48281" y="0.6" width="26.655" height="25.5833" rx="12.7916" fill="white"/>
<rect x="1.48281" y="0.6" width="26.655" height="25.5833" rx="12.7916" stroke="#434343" stroke-width="1.2"/>
<mask id="mask0_1185_26660" style="mask-type:alpha" maskUnits="userSpaceOnUse" x="0" y="0" width="29" height="27">
<ellipse cx="14.7646" cy="13.3477" rx="13.8818" ry="13.3477" fill="#D9D9D9"/>
</mask>
<g mask="url(#mask0_1185_26660)">
<path d="M22.3769 24.3674C22.3131 24.4112 22.2403 24.455 22.1766 24.4987C22.1038 24.5425 22.04 24.5862 21.9672 24.6213C21.9035 24.6563 21.8489 24.6913 21.7852 24.7263C21.7761 24.735 21.767 24.735 21.7579 24.7438C21.5485 24.8663 21.33 24.9801 21.1115 25.0851C21.0478 25.1202 20.975 25.1552 20.9113 25.1814C20.9113 25.1814 20.9022 25.1902 20.8931 25.1902C20.8203 25.2252 20.7474 25.2602 20.6746 25.2952C20.529 25.3652 20.3742 25.4265 20.2286 25.4878C20.1557 25.5228 20.0738 25.549 20.001 25.5753C19.9282 25.6016 19.8462 25.6366 19.7734 25.6628C19.7006 25.6891 19.6187 25.7241 19.5458 25.7504C19.5458 25.7504 19.5458 25.7504 19.5367 25.7504C19.4639 25.7766 19.382 25.8029 19.3092 25.8291C19.1453 25.8816 18.9724 25.9342 18.8085 25.9867C18.7539 26.0042 18.6902 26.0217 18.6355 26.0392C18.4626 26.0917 18.2896 26.1355 18.1167 26.1705C18.053 26.188 17.9892 26.1967 17.9164 26.2142C17.7526 26.2493 17.5796 26.2843 17.4158 26.3193C17.3793 26.328 17.352 26.328 17.3156 26.3368C17.261 26.3455 17.1973 26.3543 17.1427 26.363C17.0607 26.3718 16.9879 26.3893 16.906 26.398C16.8696 26.4068 16.8332 26.4068 16.7968 26.4156C16.7512 26.4243 16.6966 26.4331 16.642 26.4331C16.4964 26.4506 16.3416 26.4681 16.196 26.4856C16.1504 26.4943 16.0958 26.4943 16.0503 26.5031H16.0412C15.9775 26.5118 15.9138 26.5118 15.85 26.5206C15.7863 26.5293 15.7226 26.5293 15.6589 26.5293C15.6225 26.5293 15.577 26.5381 15.5406 26.5381C15.4677 26.5381 15.404 26.5468 15.3403 26.5468C15.2493 26.5468 15.1673 26.5556 15.0763 26.5556C14.9853 26.5556 14.9033 26.5556 14.8123 26.5556C14.7486 26.5556 14.6849 26.5556 14.6212 26.5556C10.7797 26.5031 7.32971 24.9363 4.86281 22.4506C4.86281 22.4506 4.86281 22.4418 4.85371 22.4418C4.58062 22.2055 4.8173 20.9451 5.91875 20.1486C7.3024 19.1421 10.6159 18.5119 10.6159 18.5119C10.6159 18.5119 11.8994 18.3106 16.6602 19.2646C19.4457 19.8248 21.5667 20.6388 22.7501 22.8445C22.9959 23.2996 23.2416 23.9998 22.3769 24.3674Z" fill="white"/>
<path d="M16.6876 19.1684C18.4354 19.5097 20.3015 19.8773 21.7398 20.9889C22.2222 21.3653 22.5408 21.9167 22.8048 22.4506C22.9323 22.7132 23.0597 22.9845 23.1598 23.2734C23.2144 23.4659 23.2964 23.6848 23.2509 23.9123C23.2418 23.9736 23.1871 24.0524 23.1416 24.0961C22.9323 24.2975 22.7047 24.42 22.4771 24.5775C21.139 25.4703 19.6006 26.1005 18.0076 26.4331C14.4574 27.1771 10.616 26.5994 7.49368 24.8051C6.45594 24.2012 5.50014 23.4659 4.68087 22.5994C4.58984 22.4944 4.58984 22.3193 4.58984 22.2056C4.59895 21.943 4.67177 21.6892 4.7628 21.4528C4.98127 20.9102 5.26346 20.3675 5.74592 19.9911C6.09183 19.7636 6.46505 19.571 6.84737 19.4134C8.04896 18.9233 9.31427 18.5819 10.616 18.4419C10.7252 18.4331 10.7434 18.5819 10.6342 18.5994C9.38709 18.8445 8.14909 19.2121 6.99302 19.711C6.57428 19.9124 6.12824 20.0874 5.79143 20.4025C5.47283 20.7351 5.24525 21.1465 5.0632 21.5666C4.94486 21.8204 4.86293 22.2231 4.89934 22.4244C5.47283 23.0808 6.14645 23.6585 6.87468 24.1574C10.8618 26.8357 16.9152 27.0108 21.1572 24.7789C21.5395 24.5775 21.9127 24.35 22.2677 24.1136C22.4407 23.9999 22.6228 23.9036 22.7593 23.7723C22.7684 23.7635 22.7593 23.7723 22.7593 23.781C22.7593 23.7898 22.7502 23.7986 22.7502 23.7986C22.7593 23.6935 22.7229 23.5535 22.6774 23.4134C22.5135 22.9058 22.2495 22.3719 21.9673 21.908C21.5213 21.2165 20.7658 20.7789 20.0011 20.4288C19.4731 20.1924 18.9179 20.0086 18.3535 19.8336C17.7891 19.6585 17.2156 19.5097 16.6421 19.3784C16.4965 19.3434 16.542 19.1421 16.6876 19.1684Z" fill="black"/>
<path d="M25.3971 29.7942H1.71126C1.71126 29.7942 1.63844 24.28 3.66839 21.7155C5.15217 19.8336 7.85574 19.3347 9.51248 18.8708C9.94032 18.7571 10.3135 18.6258 10.623 18.547C10.7232 18.8096 11.7336 21.3829 14.155 22.3282C16.2395 23.1422 17.4775 22.5995 17.6687 21.698C17.787 21.1203 17.4138 20.175 17.2227 19.8687C17.1134 19.7811 17.0406 19.6498 17.0042 19.5185L16.9314 19.2297C17.0952 19.1947 17.25 19.1509 17.4138 19.1072C17.4957 19.1247 17.5777 19.1422 17.6596 19.1597C18.8339 19.431 21.2735 19.4835 23.3125 21.1378C25.6793 23.0284 25.3971 29.7942 25.3971 29.7942Z" fill="black"/>
<path d="M19.7707 21.2866C19.7252 20.6652 18.997 20.5864 18.997 20.5864C18.997 20.5864 19.6251 20.5426 19.6524 20.0525C19.6706 19.7724 19.3975 19.501 18.9515 19.3347C19.0698 19.2735 19.1608 19.1947 19.0971 19.0809C18.9515 18.8271 18.4144 18.7833 18.296 18.7396C17.8318 18.5733 16.8305 17.6192 13.69 17.2954C12.8798 17.2166 11.1958 17.1728 10.5312 17.5667V17.5579C10.4493 17.5579 10.3037 17.6717 10.1398 17.838C9.95776 17.8468 9.4571 17.8993 9.02016 18.1619C8.67424 18.3632 8.61963 18.6783 8.78348 18.8971C8.57411 18.9846 8.35564 19.1247 8.20089 19.3435C7.75485 19.9999 8.76527 20.2275 9.23863 20.0525C9.23863 20.0525 8.47398 20.4463 8.74707 21.0678C9.02016 21.6892 9.89404 21.3304 9.89404 21.3304C9.89404 21.3304 9.12939 22.1356 9.7757 22.7395C10.422 23.3435 11.1776 22.7395 11.1776 22.7395C11.1776 22.7395 10.7679 23.6586 11.4506 23.9999C12.1334 24.3413 12.6613 23.4398 12.6613 23.4398C12.6613 23.4398 12.4429 24.3763 13.1074 24.7176C13.7719 25.059 14.2361 24.2625 14.3363 23.9649C14.3363 23.9649 14.3363 24.9627 15.2739 24.9977C15.8474 25.024 16.0385 24.385 16.0931 23.8861C16.3207 23.8949 16.4937 23.8861 16.5847 23.8686C16.6484 23.8511 16.7394 23.8074 16.8487 23.7549C16.9488 23.9299 17.231 24.3238 17.6861 24.2975C18.2778 24.2713 18.4235 23.6323 18.1595 23.0896C18.1595 23.0896 18.6602 23.4135 19.179 23.0896C19.707 22.7658 19.2336 21.9868 18.9424 21.8818C18.9697 21.8555 19.8162 21.8993 19.7707 21.2866Z" fill="white"/>
<path d="M19.7533 21.2866C19.7351 20.9015 19.3619 20.6564 18.9977 20.6039C18.9704 20.6039 18.9704 20.5601 18.9977 20.5601C19.3163 20.5426 19.6714 20.3151 19.6167 19.9825C19.5621 19.6674 19.2162 19.5011 18.9249 19.4048C18.8612 19.3873 18.8521 19.2998 18.9067 19.2647C18.9431 19.2385 18.9886 19.2035 18.9977 19.1772C19.016 19.151 19.0069 19.1422 18.9977 19.1422C18.8339 18.9759 18.5608 18.9759 18.3332 18.9496C18.224 18.9409 18.0966 18.8796 17.9964 18.8359C17.7415 18.7221 17.4685 18.5733 17.2136 18.477C16.1758 18.0219 15.0562 17.8381 13.9547 17.593C13.008 17.3742 11.4878 17.1203 10.6322 17.6455L10.623 17.6542C10.6777 17.698 10.3864 17.6455 10.4319 17.5755C10.4228 17.5492 10.4319 17.5492 10.4319 17.5405V17.5317C10.4319 17.5317 10.4319 17.523 10.4319 17.5492L10.5502 17.6542C10.5593 17.6542 10.5502 17.6542 10.5411 17.6542C10.4228 17.7068 10.3318 17.7943 10.2407 17.8818C10.2225 17.8993 10.1952 17.9081 10.1679 17.9168C9.8402 17.9518 9.50339 18.0394 9.2212 18.1882C9.09376 18.2494 8.96632 18.3457 8.9026 18.4682C8.84798 18.582 8.85708 18.6958 8.9299 18.7921C8.97542 18.8534 8.96632 18.9496 8.89349 18.9934C8.88439 19.0022 8.87529 19.0109 8.85708 19.0109C8.51117 19.0197 8.09243 19.4048 8.20167 19.7286C8.2836 19.8862 8.48386 19.9562 8.65682 19.9825C8.84798 20.0175 9.04824 20.0087 9.2212 19.9474C9.26671 19.9299 9.32133 19.9562 9.33954 20C9.35774 20.0437 9.33954 20.0875 9.29402 20.105C8.96632 20.2801 8.67502 20.6564 8.87529 21.0153C8.94811 21.1816 9.10286 21.2691 9.29402 21.2779C9.47608 21.2954 9.68545 21.2428 9.8584 21.1816C9.93123 21.1553 10.0132 21.1903 10.0496 21.2604C10.0678 21.3129 10.0587 21.3654 10.0223 21.4092C9.74917 21.733 9.5398 22.2494 9.89482 22.5733C10.2134 22.9146 10.7323 22.8358 11.0691 22.5733C11.2329 22.442 11.4696 22.617 11.3877 22.8008C11.3149 22.9759 11.2694 23.2122 11.2967 23.396C11.324 23.7636 11.7427 23.9737 12.0613 23.7461C12.2252 23.6411 12.3799 23.466 12.48 23.2997C12.6075 23.0809 12.9625 23.2122 12.917 23.4485C12.9079 23.4923 12.8988 23.5536 12.8988 23.6148C12.8897 23.7724 12.8988 23.9474 12.9443 24.0962C13.0444 24.4551 13.4814 24.6827 13.7727 24.3851C13.9274 24.2538 14.064 24.0437 14.1277 23.8599C14.2187 23.6061 14.6101 23.6673 14.6101 23.9299C14.6192 24.1225 14.6739 24.3413 14.8013 24.4989C14.9469 24.6914 15.302 24.8139 15.5295 24.6827C15.7844 24.4901 15.8481 24.14 15.9028 23.8249C15.9483 23.5623 16.276 23.6761 16.4671 23.6498C16.5764 23.6411 16.54 23.6498 16.6492 23.6061C16.6947 23.5886 16.7311 23.5711 16.7766 23.5448C16.8768 23.4923 16.9951 23.5361 17.0406 23.6236C17.1316 23.7899 17.2591 23.9387 17.4047 24.0175C18.0875 24.3326 18.315 23.6148 18.0692 23.0984C18.0237 22.9934 18.1512 22.8971 18.2422 22.9584C18.4789 23.1072 18.8066 23.1509 19.0706 23.0284C19.6167 22.8358 19.3346 22.0919 18.9522 21.8818C18.9249 21.873 18.9158 21.8468 18.9249 21.8205C18.934 21.803 18.9522 21.7943 18.9704 21.7943C19.3255 21.838 19.7897 21.698 19.7533 21.2866ZM19.7988 21.2779C19.8534 21.7242 19.3619 21.9168 18.9704 21.8993L18.9886 21.8118C19.107 21.8555 19.1798 21.9431 19.2526 22.0218C19.462 22.2757 19.6076 22.652 19.4165 22.9584C19.1707 23.291 18.6609 23.3785 18.2786 23.2297C18.224 23.2122 18.1694 23.1859 18.1148 23.1509L18.2877 23.0109C18.4516 23.326 18.5153 23.7286 18.3332 24.0612C18.133 24.4376 17.5959 24.5251 17.2318 24.3413C16.9951 24.2275 16.8221 24.0262 16.6947 23.8161L16.9678 23.8949C16.8677 23.9474 16.7675 23.9999 16.6492 24.035C16.4671 24.07 16.2942 24.07 16.103 24.0612L16.3306 23.8774C16.2851 24.2888 16.194 24.7789 15.7935 25.059C15.3566 25.3391 14.7194 25.1728 14.4099 24.7877C14.2096 24.5339 14.1186 24.245 14.1095 23.9387L14.5919 24.0175C13.9365 25.7155 12.0977 25.0503 12.4527 23.3698L12.8806 23.5273C12.7987 23.6498 12.7258 23.7461 12.6257 23.8512C12.4254 24.0612 12.1705 24.2363 11.8519 24.2625C11.3604 24.3063 10.8961 23.9037 10.8688 23.4398C10.8415 23.1597 10.8961 22.9059 11.0054 22.6433L11.324 22.8709C11.2512 22.9234 11.1965 22.9584 11.1237 22.9934C10.4683 23.361 9.63083 23.1334 9.39415 22.407C9.28492 21.9693 9.50339 21.5404 9.79468 21.2166L9.95854 21.4354C9.33954 21.6717 8.58399 21.5142 8.58399 20.7615C8.6022 20.4026 8.88439 20.1313 9.19389 19.9562L9.26671 20.1138C8.79336 20.2801 7.81935 20.0875 8.05602 19.4398C8.19257 19.1335 8.44745 18.9321 8.72054 18.7308L8.64771 18.9584C8.17436 18.1094 9.47608 17.733 10.1315 17.7155L10.0587 17.7505C10.1861 17.6192 10.3227 17.4354 10.532 17.4179C10.5957 17.4179 10.6504 17.4704 10.6504 17.523C10.6504 17.5492 10.6504 17.5492 10.6504 17.5492C10.6504 17.5405 10.6504 17.5405 10.6504 17.5142C10.6959 17.4529 10.4137 17.3917 10.4683 17.4354L10.4865 17.4267C10.8415 17.2604 11.242 17.2079 11.6244 17.1816C12.4072 17.1291 13.1901 17.1641 13.9729 17.2691C15.4294 17.4529 16.8677 17.8205 18.1148 18.582C18.3787 18.7396 18.67 18.6871 18.9431 18.8446C19.0706 18.9146 19.2162 19.0459 19.1616 19.2035C19.1343 19.291 19.0433 19.3523 18.9704 19.3873L18.9613 19.2385C19.1252 19.3085 19.2799 19.396 19.4074 19.5098C19.9262 19.9562 19.635 20.5339 18.9795 20.5864V20.5426C19.3892 20.6039 19.7806 20.8752 19.7988 21.2779Z" fill="black"/>
<path d="M16.2322 23.536C16.2322 23.536 15.4494 25.5578 16.032 25.9167C16.6146 26.2756 16.4598 23.4397 16.4598 23.4397C16.4598 23.4397 17.0424 25.8554 17.7888 25.6541C18.5353 25.4528 16.7329 23.4397 16.5964 23.4047" fill="white"/>
<path d="M16.4491 23.6147C16.176 24.0786 15.6299 25.374 16.0304 25.8291C16.3581 26.1092 16.3672 24.8838 16.3581 24.7263C16.349 24.2974 16.3126 23.8598 16.2216 23.4396L16.2307 23.3696C16.2671 23.1158 16.6585 23.1246 16.6767 23.3784C16.6858 23.8423 17.1045 25.7591 17.7782 25.5841C17.9966 25.4965 17.8601 25.2077 17.7873 25.0589C17.496 24.5162 17.059 24.0348 16.5675 23.6497C16.5311 23.6322 16.5038 23.5972 16.4673 23.5884C16.4673 23.5884 16.4673 23.5884 16.4764 23.5972C16.4855 23.606 16.5038 23.6147 16.522 23.6147C16.3945 23.5797 16.3308 23.4572 16.3581 23.3346C16.3945 23.1946 16.5675 23.1246 16.6949 23.2033C16.7222 23.2121 16.7404 23.2383 16.7586 23.2558C16.9225 23.4309 17.0408 23.6235 17.1774 23.8073C17.3867 24.1399 18.4245 25.4615 17.8146 25.6891C17.1045 25.9517 16.4673 23.9736 16.2216 23.4834L16.6858 23.4221C16.6403 23.8685 16.613 24.2974 16.5675 24.7351C16.5129 25.1202 16.5129 25.5228 16.3217 25.8817C16.2307 26.0305 16.0668 26.0392 15.9394 25.9254C15.7937 25.8029 15.7573 25.6016 15.7391 25.4353C15.7027 24.7613 15.8848 24.1224 16.0031 23.4572C16.0304 23.3346 16.1487 23.2558 16.2762 23.2733C16.4491 23.2996 16.5311 23.4834 16.4491 23.6147Z" fill="black"/>
<path d="M6.75832 19.6673C6.75832 19.6673 7.35912 24.9714 2.17045 25.374C2.17045 25.374 1.33298 22.7132 2.91689 20.7001C4.38246 18.827 6.75832 19.6673 6.75832 19.6673Z" fill="white"/>
<path d="M6.7933 19.6411C6.8115 19.6673 6.8024 19.7023 6.8115 19.7286C6.83881 20.0437 6.84792 20.3675 6.82971 20.6914C6.75689 22.4332 5.97403 24.2012 4.28999 25.024C3.63458 25.3478 2.91545 25.5229 2.18721 25.6016C2.07798 25.6104 1.97785 25.5491 1.95054 25.4529C1.8413 25.059 1.79579 24.6826 1.76848 24.2887C1.57732 21.9868 2.86993 19.2734 5.61902 19.4222C6.00134 19.4397 6.38367 19.501 6.74778 19.6236C6.75689 19.6236 6.77509 19.6323 6.7933 19.6411ZM6.59303 19.7899C6.61124 19.8161 6.65675 19.8511 6.67496 19.8511C6.64765 19.8424 6.58393 19.8249 6.55662 19.8161C3.24315 18.9759 1.75027 22.0656 2.26914 24.7876C2.29645 24.9627 2.34196 25.1465 2.38748 25.3128L2.1417 25.1553C5.29131 24.9452 6.67496 22.652 6.55662 19.8074C6.55662 19.7899 6.54752 19.7198 6.54752 19.7023C6.55662 19.7286 6.56572 19.7724 6.59303 19.7899Z" fill="black"/>
<path d="M20.9531 19.8511C20.9531 19.8511 22.0091 20.6213 23.065 22.5294C23.6112 23.5184 24.0845 24.6738 25.1769 25.1815C25.1769 25.1815 25.714 22.7219 24.658 21.2427C23.1833 19.1771 20.9531 19.8511 20.9531 19.8511Z" fill="white"/>
<path d="M21.0454 19.8598C21.0545 19.8423 21.0454 19.7985 21.0272 19.7898L21.0363 19.7985C21.4915 20.1574 21.8829 20.5863 22.247 21.0327C22.6111 21.4878 22.9297 21.9692 23.221 22.4681C23.7672 23.3959 24.2405 24.5162 25.2874 24.9801L24.9597 25.1377C25.1963 23.886 25.251 22.4418 24.5318 21.3215C23.7854 20.1924 22.42 19.6322 21.0545 19.9211L21.0272 19.9298H21.009H20.9999C21.009 19.9298 21.0454 19.8861 21.0454 19.8598ZM20.918 19.8423C20.9271 19.8073 20.9726 19.8073 21.009 19.7985C22.0376 19.5359 23.1846 19.746 24.013 20.3937C25.3875 21.4178 25.6242 23.1333 25.4694 24.7C25.4512 24.8751 25.433 25.0501 25.3966 25.2339C25.3693 25.374 25.1963 25.444 25.0689 25.3827C24.7867 25.2427 24.5227 25.0501 24.3134 24.8313C23.6853 24.1924 23.3393 23.3521 22.9479 22.5994C22.4291 21.6191 21.8101 20.665 20.9635 19.9123C20.9453 19.8948 20.918 19.8685 20.918 19.8423Z" fill="black"/>
<path d="M10.2129 17.8555C10.0308 18.1793 9.86694 18.5644 9.86694 18.9408C9.87605 19.1246 9.95797 19.2997 10.0399 19.466C10.6862 20.6738 11.7968 21.6454 13.0621 22.2231C13.7903 22.5557 14.5641 22.8095 15.356 22.932C15.7383 22.9846 16.1389 23.0196 16.5212 22.9846L16.4484 23.0021C18.1688 22.1793 18.9699 20.7089 18.1051 18.9583C18.0596 18.8708 18.1961 18.792 18.2507 18.8795C18.4783 19.2647 18.6331 19.6848 18.6877 20.1312C18.8971 21.5841 17.9048 22.7307 16.6577 23.4047C16.6395 23.4134 16.6122 23.4222 16.5849 23.4222C16.3482 23.4397 16.148 23.4309 15.9204 23.4134C14.8645 23.3259 13.8449 22.9846 12.9073 22.5119C11.6056 21.8642 10.4768 20.8226 9.84874 19.536C9.76681 19.3434 9.68488 19.1421 9.67578 18.9233C9.70309 18.5032 9.87605 18.1268 10.0854 17.768C10.14 17.6979 10.2675 17.7767 10.2129 17.8555Z" fill="black"/>
<path d="M16.3185 23.2034C16.4368 21.9255 16.4823 20.6126 16.2184 19.3522C16.2001 19.2734 16.2548 19.1859 16.3367 19.1684C16.4277 19.1509 16.5187 19.2122 16.5279 19.2997C16.5734 19.6235 16.6098 19.9561 16.6371 20.28C16.719 21.2253 16.7554 22.2669 16.7918 23.2209C16.7827 23.536 16.2912 23.5185 16.3185 23.2034Z" fill="black"/>
<path d="M16.5046 20.8664C16.751 20.8664 16.9507 20.6744 16.9507 20.4375C16.9507 20.2007 16.751 20.0087 16.5046 20.0087C16.2583 20.0087 16.0586 20.2007 16.0586 20.4375C16.0586 20.6744 16.2583 20.8664 16.5046 20.8664Z" fill="black"/>
<path d="M16.5671 22.1881C16.8135 22.1881 17.0132 21.9961 17.0132 21.7592C17.0132 21.5223 16.8135 21.3303 16.5671 21.3303C16.3208 21.3303 16.1211 21.5223 16.1211 21.7592C16.1211 21.9961 16.3208 22.1881 16.5671 22.1881Z" fill="black"/>
<path d="M17.542 21.4967C17.3508 22.3982 16.1128 22.9409 14.0283 22.1269C11.8618 21.2866 10.9242 19.2823 10.6875 18.6871C11.971 16.3764 11.0789 14.7746 11.0789 14.7746C14.0374 14.5296 16.6226 17.8556 16.6226 17.8556L17.0231 19.5011C17.0596 19.6411 17.1324 19.7637 17.2416 19.8512C17.4328 20.175 17.6603 20.919 17.542 21.4967Z" fill="white"/>
<path d="M10.6438 18.7134C10.8167 18.4595 10.926 18.1619 10.9988 17.8731C11.1354 17.2692 11.1809 16.6565 11.19 16.0438V15.8162C11.1627 15.5886 11.0807 15.3523 10.9897 15.1423C10.8714 14.8622 11.2992 14.6871 11.4357 14.9672C11.454 15.0022 11.454 15.0635 11.454 15.0985C11.4813 16.2889 11.5359 17.8206 10.753 18.8096C10.6984 18.8621 10.5892 18.7834 10.6438 18.7134Z" fill="black"/>
<path d="M16.7235 17.838C16.86 17.9168 16.9055 18.0218 16.9238 18.1269C16.9784 18.3369 16.9602 18.5645 17.0148 18.7833C17.0603 18.9934 17.1968 19.1947 17.2333 19.4135C17.2788 19.6411 17.4153 20.1225 17.4699 20.3588C17.4881 20.4113 17.4517 20.4726 17.388 20.4814C17.3516 20.4901 17.3243 20.4814 17.297 20.4638C17.1786 20.3676 17.124 20.2713 17.0512 20.1488C16.9329 19.9387 16.8509 19.7461 16.7781 19.5098C16.7144 19.2997 16.7417 19.0722 16.6871 18.8534C16.6416 18.6433 16.5141 18.442 16.4686 18.2232C16.4413 18.1181 16.4322 18.0043 16.5141 17.873C16.5687 17.8205 16.6598 17.803 16.7235 17.838Z" fill="black"/>
<path d="M17.3783 20.1487C15.6396 20.0612 14.2196 19.536 12.8359 17.1641C14.0011 18.1531 15.3757 18.5295 16.823 18.7045L17.0142 19.5098C17.0506 19.6498 17.2691 20.0612 17.3783 20.1487Z" fill="black"/>
<path d="M17.3054 19.825C17.6149 20.3851 17.797 21.0854 17.6058 21.7068C17.4602 22.1444 17.0414 22.4683 16.5863 22.5908C15.5304 22.8622 14.3106 22.4333 13.373 21.9519C12.2169 21.3304 11.3612 20.2889 10.815 19.151C10.7786 19.0635 10.9061 18.9935 10.9607 19.081C11.1518 19.4486 11.3703 19.8075 11.6161 20.1313C11.8619 20.4639 12.1441 20.7703 12.4627 21.0416C13.3912 21.8468 14.6474 22.3457 15.9036 22.3457C17.1962 22.3107 17.6877 21.6543 17.3874 20.4464C17.3418 20.2539 17.269 20.0525 17.1689 19.8862C17.1143 19.8162 17.2508 19.7374 17.3054 19.825Z" fill="black"/>
<path d="M20.8258 9.31282C20.9897 10.048 20.4435 10.8358 20.4435 12.7964C20.4435 14.8008 20.0612 16.9802 18.4864 18.4944C17.13 19.7985 15.5734 19.746 13.7437 18.3719C13.4889 18.1793 12.5968 17.5316 12.3692 17.3128C12.1052 17.059 11.9596 16.8751 11.8321 16.6826C11.7229 16.5075 11.7502 15.4922 11.5955 15.2559C11.1949 14.617 11.113 15.3084 10.5941 14.7482C9.875 13.9955 9.01022 12.4813 9.43806 9.80297C10.1299 5.46163 13.7073 4.95397 16.3563 5.43537C19.0234 5.92552 20.3889 7.37847 20.8258 9.31282Z" fill="white"/>
<path d="M11.048 15.5273C10.8386 15.1947 10.5747 14.8971 10.3289 14.5907C10.0831 14.2669 9.88283 13.9255 9.71898 13.5579C8.79048 11.396 8.92702 8.56888 10.5747 6.74832C11.7034 5.50544 13.4876 5.09406 15.1261 5.18159C16.7646 5.27787 18.4669 5.68049 19.6776 6.81834C20.3785 7.4748 20.8246 8.35007 21.0248 9.26035C21.0885 9.54919 21.043 9.86428 20.9702 10.1356C20.7608 10.8971 20.5606 11.6236 20.5424 12.4113C20.5515 13.5842 20.5151 14.7833 20.16 15.9124C19.9052 16.6651 19.6048 17.4179 19.1314 18.0743C18.6399 18.7395 17.9025 19.2734 17.0559 19.431C15.3537 19.7636 13.7607 18.7308 12.6319 17.6104C12.5864 17.5579 12.6501 17.4966 12.7047 17.5316C13.351 18.0043 14.0156 18.4419 14.7347 18.7395C16.8102 19.6586 18.5306 18.8095 19.4409 16.8839C20.2056 15.4835 20.424 13.9693 20.3603 12.4026C20.3603 12.0087 20.3785 11.6148 20.4331 11.221C20.4877 10.652 20.688 10.0831 20.6789 9.52293C20.5242 8.61265 20.0872 7.73738 19.4318 7.06342C17.8752 5.47918 14.8894 5.01529 12.7958 5.73301C10.3289 6.57327 9.66436 8.96275 9.52782 11.2472C9.43679 12.6126 9.85552 13.9518 10.9297 14.8883L11.3575 15.3172C11.5032 15.5098 11.1937 15.7373 11.048 15.5273Z" fill="black"/>
<path d="M12.1217 12.7439C12.1217 12.7439 11.8395 11.431 10.5105 11.5886C9.36349 11.7286 8.96296 14.3719 11.5664 15.1071" fill="white"/>
<path d="M11.449 13.9605C11.2396 13.8467 11.094 13.6542 11.0849 13.4179C11.094 13.2428 11.1213 13.0415 11.0758 12.8664C11.0485 12.7001 10.8664 12.6564 10.7299 12.6651C10.5842 12.6914 10.4932 12.8664 10.4659 13.0065C10.4659 13.0152 10.4568 13.0415 10.4568 13.0502C10.4477 13.094 10.3749 13.094 10.3567 13.0502C10.2383 12.7089 10.5023 12.3325 10.8846 12.3763C11.4217 12.4113 11.4945 12.954 11.3944 13.3653C11.3398 13.5404 11.4126 13.6979 11.5127 13.8467L11.5309 13.873C11.5765 13.9255 11.5036 13.9955 11.449 13.9605Z" fill="black"/>
<path d="M18.7322 11.8161C18.8687 12.4376 19.1236 13.0153 19.4422 13.5579C19.7244 14.2231 18.9962 14.8533 18.3499 14.8271C18.2771 14.8271 18.268 14.7308 18.3317 14.7133C18.7413 14.5908 19.1145 14.3282 19.1782 13.9255C19.2056 13.803 19.1691 13.698 19.1054 13.5929C18.805 13.0503 18.623 12.4288 18.6685 11.8161C18.6685 11.7724 18.7322 11.7724 18.7322 11.8161Z" fill="black"/>
<path d="M12.0795 12.7527C11.8701 12.2363 11.415 11.7461 10.8051 11.7549C10.7504 11.7461 10.6594 11.7636 10.6048 11.7636C10.45 11.7724 10.3226 11.8249 10.2043 11.9299C9.62167 12.4901 9.72181 13.4791 10.1952 14.1006C10.359 14.3194 10.5684 14.512 10.8051 14.6695C11.0417 14.8271 11.3057 14.9496 11.5879 15.0546C11.6516 15.0721 11.6243 15.1684 11.5606 15.1597C10.9507 15.0371 10.3681 14.7483 9.96759 14.2669C9.34859 13.5492 9.22114 12.35 9.95848 11.6498C10.1223 11.5098 10.3499 11.4048 10.5775 11.4048C10.6503 11.4048 10.7595 11.3872 10.8324 11.4048C11.2147 11.4223 11.5788 11.6061 11.8155 11.8949C12.0248 12.14 12.1432 12.4376 12.1796 12.7352C12.1796 12.7877 12.0977 12.8052 12.0795 12.7527Z" fill="black"/>
<path d="M17.8364 15.6673C17.8455 15.8073 17.7363 16.0524 17.536 16.2275C16.5074 15.6235 16.0431 15.9386 16.0431 15.9386C15.679 15.4047 15.7609 14.6782 16.6439 15.2297C17.2538 15.6148 17.6361 15.6761 17.8364 15.6673Z" fill="black"/>
<path d="M17.5241 16.2362C17.3057 16.42 16.978 16.5338 16.5319 16.3588C16.3225 16.28 16.1587 16.1225 16.0312 15.9474C16.0404 15.9474 16.4955 15.6323 17.5241 16.2362Z" fill="white"/>
<path d="M18.0077 15.6411C18.0077 15.6411 17.6254 15.8424 16.6423 15.2384C15.468 14.512 15.7047 16.0349 16.5331 16.3588C17.3978 16.7001 17.8439 15.9562 17.8348 15.6761" stroke="black" stroke-width="0.0523908" stroke-miterlimit="10" stroke-linecap="round" stroke-linejoin="round"/>
<path d="M16.043 15.9474C16.043 15.9474 16.5072 15.6323 17.5358 16.2362" stroke="black" stroke-width="0.0523908" stroke-miterlimit="10" stroke-linecap="round" stroke-linejoin="round"/>
<path d="M15.7686 12.0875C15.7686 12.0963 15.7686 12.105 15.7686 12.105L15.7595 12.3501C15.7504 12.5602 15.5683 12.7177 15.3499 12.709C15.1314 12.7002 14.9676 12.5164 14.9858 12.3151L14.9949 12.07C14.9949 12.0262 15.0131 11.9737 15.0313 11.9387L15.7595 11.9737C15.7595 12.0087 15.7686 12.0438 15.7686 12.0875Z" fill="black"/>
<path d="M19.5737 12.28L19.5646 12.5076C19.5555 12.7001 19.3825 12.8489 19.1822 12.8402C18.982 12.8314 18.8272 12.6651 18.8363 12.4725L18.8454 12.245C18.8454 12.2012 18.8545 12.1574 18.8727 12.1224L19.5555 12.1487C19.5646 12.1925 19.5737 12.2362 19.5737 12.28Z" fill="black"/>
<path d="M16.6772 10.8884C16.8775 10.9146 17.0322 10.7133 16.9594 10.5207C16.923 10.4157 16.8592 10.3194 16.7591 10.2582C16.4496 10.0744 15.2935 10.0569 14.6836 10.477C14.1375 10.8621 15.7669 10.7658 16.6772 10.8884Z" fill="black"/>
<path d="M19.1995 10.9846C19.0357 10.9846 18.9355 10.7833 19.0175 10.617C19.063 10.5294 19.1267 10.4507 19.2177 10.4069C19.4999 10.2756 20.2555 10.3544 20.5923 10.8008C20.8927 11.1947 19.9551 10.9758 19.1995 10.9846Z" fill="black"/>
<path d="M16.3489 12.0874L14.8469 12.0611C14.6649 12.0524 14.674 11.7898 14.856 11.7986L16.358 11.9036C16.4854 11.9123 16.4763 12.0874 16.3489 12.0874Z" fill="black"/>
<path d="M19.951 12.2363L18.8404 12.2538C18.6583 12.2538 18.6492 12 18.8313 11.9912C18.8404 11.9912 18.8404 11.9912 18.8495 11.9912L19.9601 12.105C20.042 12.1137 20.0329 12.2275 19.951 12.2363Z" fill="black"/>
<path d="M19.8436 3.4924C18.023 3.75498 17.0126 4.67401 16.5028 4.63025C12.4247 4.24513 10.5313 5.68932 9.99419 6.15322C9.23865 6.79216 8.62875 9.36546 8.67427 10.8096C8.72888 12.8228 10.4038 15.0109 10.4858 15.1072C11.041 15.7462 11.1776 16.5864 11.3141 16.1225C11.3596 15.9737 11.2322 15.186 11.2777 15.0109C9.00197 14.1707 9.41161 11.7287 10.5222 11.5886C11.6873 11.4486 12.0515 12.4464 12.1152 12.6915C12.1152 12.6915 12.1516 13.418 12.2881 13.628C12.4247 13.8381 13.3259 14.1882 13.3259 14.1882C13.3259 14.1882 13.2439 12.7177 13.2257 12.5689C13.2075 12.4201 12.4247 12.1401 12.2881 10.5383C12.2335 9.34795 12.4975 7.16853 15.8565 8.64773C16.6484 8.99784 18.4144 9.42672 20.1349 9.21666C20.1349 9.21666 22.1648 9.30419 23.1115 7.5624C24.0582 5.82937 22.4015 3.11603 19.8436 3.4924Z" fill="black"/>
<path d="M13.3527 14.3895C13.3527 14.3895 12.5061 13.9081 12.4333 13.9694C12.3604 14.0219 13.4255 14.6083 13.3527 14.3895Z" fill="black"/>
<path d="M13.3512 14.5208C13.3512 14.5208 12.796 14.2845 12.714 14.3283C12.623 14.372 13.4514 14.7659 13.3512 14.5208Z" fill="black"/>
<path d="M19.3823 15.9474C18.7178 16.0524 18.381 15.6848 18.2536 15.5098C18.026 15.9474 17.4798 16.3238 16.3875 16.14C14.9674 15.9036 14.9492 14.6695 14.9492 14.6695C15.3953 15.1247 15.9687 14.7833 16.7607 14.5032C17.6983 14.1794 18.1261 14.4857 18.2718 14.6608C18.29 14.6433 18.4903 14.8621 18.8999 14.4507C18.9909 14.3632 19.1548 14.5207 19.2913 14.6345C19.7465 15.0371 19.9649 15.0896 20.1288 14.8533C20.1288 14.8621 20.1652 15.8249 19.3823 15.9474Z" fill="black"/>
</g>
</svg>
