<svg width="29" height="27" viewBox="0 0 29 27" fill="none" xmlns="http://www.w3.org/2000/svg">
<rect x="1.56094" y="0.6" width="26.655" height="25.5833" rx="12.7916" fill="white"/>
<rect x="1.56094" y="0.6" width="26.655" height="25.5833" rx="12.7916" stroke="#2D2D2D" stroke-width="1.2"/>
<mask id="mask0_1185_26640" style="mask-type:alpha" maskUnits="userSpaceOnUse" x="0" y="0" width="29" height="27">
<ellipse cx="14.8428" cy="13.3477" rx="13.8818" ry="13.3477" fill="#D9D9D9"/>
</mask>
<g mask="url(#mask0_1185_26640)">
<path d="M22.455 24.3674C22.3913 24.4112 22.3184 24.455 22.2547 24.4987C22.1819 24.5425 22.1182 24.5862 22.0453 24.6213C21.9816 24.6563 21.927 24.6913 21.8633 24.7263C21.8542 24.735 21.8451 24.735 21.836 24.7438C21.6266 24.8663 21.4081 24.9801 21.1897 25.0851C21.1259 25.1202 21.0531 25.1552 20.9894 25.1814C20.9894 25.1814 20.9803 25.1902 20.9712 25.1902C20.8984 25.2252 20.8256 25.2602 20.7527 25.2952C20.6071 25.3652 20.4523 25.4265 20.3067 25.4878C20.2339 25.5228 20.1519 25.549 20.0791 25.5753C20.0063 25.6016 19.9244 25.6366 19.8515 25.6628C19.7787 25.6891 19.6968 25.7241 19.624 25.7504C19.624 25.7504 19.624 25.7504 19.6149 25.7504C19.542 25.7766 19.4601 25.8029 19.3873 25.8291C19.2234 25.8816 19.0505 25.9342 18.8866 25.9867C18.832 26.0042 18.7683 26.0217 18.7137 26.0392C18.5407 26.0917 18.3678 26.1355 18.1948 26.1705C18.1311 26.188 18.0674 26.1967 17.9945 26.2142C17.8307 26.2493 17.6577 26.2843 17.4939 26.3193C17.4575 26.328 17.4302 26.328 17.3937 26.3368C17.3391 26.3455 17.2754 26.3543 17.2208 26.363C17.1389 26.3718 17.066 26.3893 16.9841 26.398C16.9477 26.4068 16.9113 26.4068 16.8749 26.4156C16.8294 26.4243 16.7747 26.4331 16.7201 26.4331C16.5745 26.4506 16.4197 26.4681 16.2741 26.4856C16.2286 26.4943 16.174 26.4943 16.1284 26.5031H16.1193C16.0556 26.5118 15.9919 26.5118 15.9282 26.5206C15.8645 26.5293 15.8007 26.5293 15.737 26.5293C15.7006 26.5293 15.6551 26.5381 15.6187 26.5381C15.5459 26.5381 15.4821 26.5468 15.4184 26.5468C15.3274 26.5468 15.2455 26.5556 15.1544 26.5556C15.0634 26.5556 14.9815 26.5556 14.8904 26.5556C14.8267 26.5556 14.763 26.5556 14.6993 26.5556C10.8578 26.5031 7.40783 24.9363 4.94094 22.4506C4.94094 22.4506 4.94094 22.4418 4.93183 22.4418C4.65875 22.2055 4.89542 20.9451 5.99688 20.1486C7.38052 19.1421 10.694 18.5119 10.694 18.5119C10.694 18.5119 11.9775 18.3106 16.7383 19.2646C19.5238 19.8248 21.6448 20.6388 22.8282 22.8445C23.074 23.2996 23.3198 23.9998 22.455 24.3674Z" fill="white"/>
<path d="M16.7658 19.1684C18.5135 19.5097 20.3796 19.8773 21.8179 20.9889C22.3004 21.3653 22.619 21.9167 22.8829 22.4506C23.0104 22.7132 23.1378 22.9845 23.238 23.2734C23.2926 23.4659 23.3745 23.6848 23.329 23.9123C23.3199 23.9736 23.2653 24.0524 23.2197 24.0961C23.0104 24.2975 22.7828 24.42 22.5552 24.5775C21.2171 25.4703 19.6787 26.1005 18.0857 26.4331C14.5355 27.1771 10.6941 26.5994 7.5718 24.8051C6.53407 24.2012 5.57826 23.4659 4.759 22.5994C4.66797 22.4944 4.66797 22.3193 4.66797 22.2056C4.67707 21.943 4.74989 21.6892 4.84092 21.4528C5.05939 20.9102 5.34159 20.3675 5.82404 19.9911C6.16995 19.7636 6.54317 19.571 6.9255 19.4134C8.12708 18.9233 9.39239 18.5819 10.6941 18.4419C10.8033 18.4331 10.8216 18.5819 10.7123 18.5994C9.46521 18.8445 8.22722 19.2121 7.07114 19.711C6.65241 19.9124 6.20636 20.0874 5.86956 20.4025C5.55095 20.7351 5.32338 21.1465 5.14132 21.5666C5.02298 21.8204 4.94106 22.2231 4.97747 22.4244C5.55095 23.0808 6.22457 23.6585 6.95281 24.1574C10.9399 26.8357 16.9933 27.0108 21.2353 24.7789C21.6176 24.5775 21.9909 24.35 22.3459 24.1136C22.5188 23.9999 22.7009 23.9036 22.8374 23.7723C22.8465 23.7635 22.8374 23.7723 22.8374 23.781C22.8374 23.7898 22.8283 23.7986 22.8283 23.7986C22.8374 23.6935 22.801 23.5535 22.7555 23.4134C22.5916 22.9058 22.3277 22.3719 22.0455 21.908C21.5994 21.2165 20.8439 20.7789 20.0792 20.4288C19.5513 20.1924 18.996 20.0086 18.4316 19.8336C17.8672 19.6585 17.2937 19.5097 16.7203 19.3784C16.5746 19.3434 16.6201 19.1421 16.7658 19.1684Z" fill="black"/>
<path d="M9.23723 18.7832C9.55584 19.3259 10.7665 21.5053 10.9577 23.4309L12.0865 23.7985C12.0865 23.7985 11.2308 20.1574 9.70148 18.4681C9.70148 18.4681 9.51943 18.3893 9.29185 18.5381C9.21903 18.5994 9.18262 18.6957 9.23723 18.7832Z" fill="black"/>
<path d="M18.922 23.4571C18.922 23.4571 18.9766 21.0326 17.8843 19.4397C17.857 19.3959 17.8934 19.3346 17.948 19.3434C18.0208 19.3609 18.1301 19.3871 18.303 19.4659C18.5943 19.5972 19.541 20.9889 19.6229 23.2733C19.6229 23.2646 19.0131 23.4571 18.922 23.4571Z" fill="black"/>
<path d="M22.0382 21.1814C21.5649 20.7 20.1357 19.9823 19.8899 19.9998C19.8991 20.0173 19.8991 20.0436 19.9082 20.0698C20.2905 21.3915 19.981 23.1858 18.5882 23.4834C17.1409 23.7897 15.9302 23.8335 13.0263 23.5534C10.8963 23.3521 8.89361 21.514 7.87408 19.6935C7.77395 19.5097 7.65561 19.3259 7.52817 19.1596C7.45535 19.107 7.3188 19.1158 7.21867 19.1946C6.96379 19.3959 6.62698 19.3784 6.62698 19.5709C6.62698 19.5709 4.69716 20.1486 4.02354 24.2186C3.64122 26.5206 3.10414 29.5053 3.08594 30.5206H23.8133C23.6677 29.1551 23.8133 23.072 22.0382 21.1814Z" fill="black"/>
<path d="M21.8637 21.339C21.5906 21.0764 21.2356 20.8751 20.8988 20.6825C20.5893 20.5075 20.2069 20.3149 19.8883 20.2274L20.0977 19.9473L20.1068 19.9998C20.3617 21.0239 20.3071 22.2405 19.5697 23.0807C19.3149 23.3608 18.9416 23.5621 18.5593 23.6234C17.8493 23.7635 17.112 23.8422 16.3837 23.8422C15.1093 23.8335 13.8531 23.7372 12.5969 23.5709C11.7048 23.3871 10.8764 22.9582 10.1573 22.4243C9.14689 21.6716 8.37314 20.6825 7.654 19.6759C7.55387 19.5359 7.43553 19.4046 7.30809 19.2908L7.35361 19.3433C7.37181 19.3608 7.38092 19.3521 7.37181 19.3521C7.37181 19.3521 7.35361 19.3521 7.3445 19.3608C7.3354 19.3608 7.3354 19.3608 7.3263 19.3784C7.18065 19.5009 6.94398 19.5622 6.79833 19.6409C6.80743 19.6409 6.82564 19.5884 6.82564 19.5797L6.66178 19.7897L6.63448 19.7985L6.59806 19.816C5.35096 20.4637 4.75017 22.0042 4.42246 23.2645C4.10386 24.7 3.9127 26.1792 3.65782 27.6234C3.51217 28.5862 3.33011 29.5752 3.2846 30.5293L3.04792 30.3017H23.8117L23.5841 30.5468C23.393 28.1223 23.4931 23.2033 21.8637 21.339ZM22.2096 21.0326C23.9665 23.002 23.8572 27.9472 24.0484 30.503C24.0575 30.6256 23.9665 30.7394 23.839 30.7481C23.8299 30.7656 3.09344 30.7394 3.08433 30.7481C2.95689 30.7481 2.84766 30.6518 2.84766 30.5293C2.86586 30.0129 2.93869 29.514 3.00241 29.0238C3.21177 27.5534 3.46666 26.0917 3.71243 24.63C3.86718 23.6497 4.07655 22.6431 4.48618 21.7153C4.89582 20.7963 5.50571 19.8335 6.48883 19.3871C6.50704 19.3784 6.52524 19.3696 6.55255 19.3608L6.3887 19.5709C6.37959 19.2646 6.72551 19.1858 6.94398 19.0983C7.08962 19.0195 7.20796 18.9057 7.39002 18.9057C7.48105 18.897 7.6449 18.932 7.71772 19.037C7.84517 19.2821 7.9544 19.5271 8.06364 19.7722C8.2457 20.1661 8.48237 20.5337 8.75546 20.8751C9.73858 22.0742 11.0676 23.1245 12.6515 23.4309C13.1795 23.5184 13.7257 23.5359 14.2536 23.5796C15.6828 23.6759 17.1211 23.6934 18.5138 23.3608C18.8415 23.2908 19.1237 23.1245 19.3331 22.8794C19.9521 22.1267 19.9521 21.0239 19.679 20.1311L19.6608 20.0611C19.6153 19.9298 19.7245 19.781 19.8701 19.781C20.1341 19.7897 20.3344 19.9123 20.5711 20.0085C21.1537 20.2886 21.7271 20.5862 22.2096 21.0326Z" fill="black"/>
<path d="M19.1428 24.4287C17.6499 25.0414 12.7435 25.1814 10.2493 23.886C8.67445 23.072 7.65492 21.2777 7.16336 20.5863C6.79925 20.0611 6.61719 19.5709 6.61719 19.5709C6.61719 19.3784 6.9631 19.3959 7.20888 19.1946C7.30901 19.1158 7.44555 19.107 7.51838 19.1596C7.64582 19.3346 7.76416 19.5097 7.86429 19.6935C8.88382 21.5053 10.495 23.3259 13.0165 23.5534C15.9204 23.816 17.1311 23.7897 18.5784 23.4834C19.9712 23.1858 20.2807 21.3915 19.8984 20.0698C19.8893 20.0523 19.8893 20.0261 19.8802 19.9998C20.1259 19.9823 20.5993 20.0261 20.7722 20.4462C20.7814 20.4462 21.4823 23.4746 19.1428 24.4287Z" fill="white"/>
<path d="M19.1967 24.5512C18.5959 24.7875 17.9678 24.8751 17.3397 24.9451C16.7116 25.0151 16.0835 25.0414 15.4554 25.0414C13.8806 25.0238 12.2785 24.8838 10.7947 24.3411C9.10157 23.7547 8.00922 22.2755 7.09893 20.8751C6.82584 20.49 6.57095 20.0961 6.41621 19.6497C6.37069 19.5359 6.44351 19.3784 6.54365 19.3083C6.68019 19.2033 6.83494 19.2033 6.97148 19.1508C7.06251 19.1245 7.11713 19.072 7.19906 19.0282C7.3447 18.967 7.50856 18.9145 7.69062 18.9932C8.73745 21.1902 10.4579 23.2908 13.1524 23.4746C14.9365 23.6322 16.7571 23.8072 18.5231 23.4134C19.2331 23.2996 19.6974 22.6869 19.8612 22.0392C20.0433 21.3827 19.9887 20.6738 19.7975 20.0261C19.7793 19.9648 19.8248 19.9035 19.8885 19.9035C20.28 19.8685 20.7624 20.0348 20.899 20.4287C21.0537 21.2164 21.0537 22.0217 20.817 22.7832C20.5804 23.5621 19.9796 24.2449 19.1967 24.5512ZM19.0875 24.3061C19.8157 24.026 20.3528 23.4309 20.5986 22.7219C20.8444 22.0042 20.8717 21.2077 20.7169 20.4637C20.6077 20.1749 20.2254 20.0523 19.8976 20.0961L19.9887 19.9735C20.2982 21.0939 20.2345 22.7044 19.0784 23.3783C18.9145 23.4659 18.7325 23.5271 18.5504 23.5621C18.1954 23.6322 17.8313 23.6934 17.4763 23.7372C16.0289 23.886 14.5724 23.7722 13.1342 23.6584C10.6673 23.5359 8.76476 21.6716 7.70882 19.6584C7.636 19.5009 7.55407 19.3521 7.47215 19.1946L7.49035 19.2121C7.35381 19.1333 7.20816 19.3171 7.08072 19.3609C6.96238 19.4221 6.83494 19.4484 6.73481 19.5096C6.7166 19.5272 6.7075 19.5447 6.7075 19.5709V19.5447C6.91687 20.0961 7.29919 20.595 7.62689 21.0851C8.45526 22.3105 9.45658 23.5446 10.9313 24.0523C12.9885 24.84 16.9756 25.0326 19.0875 24.3061Z" fill="black"/>
<path d="M17.6201 21.4967C17.429 22.3982 16.191 22.9409 14.1064 22.1269C11.9399 21.2866 11.0023 19.2823 10.7656 18.6871C12.0491 16.3764 11.1571 14.7746 11.1571 14.7746C14.1155 14.5296 16.7007 17.8556 16.7007 17.8556L17.1013 19.5011C17.1377 19.6411 17.2105 19.7637 17.3197 19.8512C17.5109 20.175 17.7385 20.919 17.6201 21.4967Z" fill="white"/>
<path d="M10.7219 18.7134C10.8949 18.4595 11.0041 18.1619 11.0769 17.8731C11.2135 17.2692 11.259 16.6565 11.2681 16.0438V15.8162C11.2408 15.5886 11.1589 15.3523 11.0678 15.1423C10.9495 14.8622 11.3773 14.6871 11.5139 14.9672C11.5321 15.0022 11.5321 15.0635 11.5321 15.0985C11.5594 16.2889 11.614 17.8206 10.8312 18.8096C10.7765 18.8621 10.6673 18.7834 10.7219 18.7134Z" fill="black"/>
<path d="M16.8016 17.838C16.9382 17.9168 16.9837 18.0218 17.0019 18.1269C17.0565 18.3369 17.0383 18.5645 17.0929 18.7833C17.1384 18.9934 17.275 19.1947 17.3114 19.4135C17.3569 19.6411 17.4934 20.1225 17.5481 20.3588C17.5663 20.4113 17.5299 20.4726 17.4661 20.4814C17.4297 20.4901 17.4024 20.4814 17.3751 20.4638C17.2568 20.3676 17.2021 20.2713 17.1293 20.1488C17.011 19.9387 16.9291 19.7461 16.8562 19.5098C16.7925 19.2997 16.8198 19.0722 16.7652 18.8534C16.7197 18.6433 16.5922 18.442 16.5467 18.2232C16.5194 18.1181 16.5103 18.0043 16.5922 17.873C16.6469 17.8205 16.7379 17.803 16.8016 17.838Z" fill="black"/>
<path d="M17.4564 20.1487C15.7178 20.0612 14.2977 19.536 12.9141 17.1641C14.0792 18.1531 15.4538 18.5295 16.9011 18.7045L17.0923 19.5098C17.1287 19.6498 17.3472 20.0612 17.4564 20.1487Z" fill="black"/>
<path d="M17.3835 19.825C17.693 20.3851 17.8751 21.0854 17.6839 21.7068C17.5383 22.1444 17.1196 22.4683 16.6644 22.5908C15.6085 22.8622 14.3887 22.4333 13.4511 21.9519C12.295 21.3304 11.4393 20.2889 10.8932 19.151C10.8567 19.0635 10.9842 18.9935 11.0388 19.081C11.23 19.4486 11.4484 19.8075 11.6942 20.1313C11.94 20.4639 12.2222 20.7703 12.5408 21.0416C13.4693 21.8468 14.7255 22.3457 15.9817 22.3457C17.2743 22.3107 17.7659 21.6543 17.4655 20.4464C17.42 20.2539 17.3471 20.0525 17.247 19.8862C17.1924 19.8162 17.3289 19.7374 17.3835 19.825Z" fill="black"/>
<path d="M20.904 9.31282C21.0678 10.048 20.5216 10.8358 20.5216 12.7964C20.5216 14.8008 20.1393 16.9802 18.5645 18.4944C17.2082 19.7985 15.6516 19.746 13.8219 18.3719C13.567 18.1793 12.6749 17.5316 12.4473 17.3128C12.1833 17.059 12.0377 16.8751 11.9103 16.6826C11.801 16.5075 11.8283 15.4922 11.6736 15.2559C11.273 14.617 11.1911 15.3084 10.6723 14.7482C9.95312 13.9955 9.08834 12.4813 9.51618 9.80297C10.208 5.46163 13.7855 4.95397 16.4344 5.43537C19.1016 5.92552 20.467 7.37847 20.904 9.31282Z" fill="white"/>
<path d="M11.1261 15.5273C10.9168 15.1947 10.6528 14.8971 10.407 14.5907C10.1612 14.2669 9.96096 13.9255 9.7971 13.5579C8.8686 11.396 9.00515 8.56888 10.6528 6.74832C11.7815 5.50544 13.5657 5.09406 15.2042 5.18159C16.8428 5.27787 18.545 5.68049 19.7557 6.81834C20.4566 7.4748 20.9027 8.35007 21.1029 9.26035C21.1667 9.54919 21.1212 9.86428 21.0483 10.1356C20.839 10.8971 20.6387 11.6236 20.6205 12.4113C20.6296 13.5842 20.5932 14.7833 20.2382 15.9124C19.9833 16.6651 19.6829 17.4179 19.2095 18.0743C18.718 18.7395 17.9806 19.2734 17.1341 19.431C15.4318 19.7636 13.8388 18.7308 12.71 17.6104C12.6645 17.5579 12.7282 17.4966 12.7829 17.5316C13.4292 18.0043 14.0937 18.4419 14.8128 18.7395C16.8883 19.6586 18.6087 18.8095 19.519 16.8839C20.2837 15.4835 20.5022 13.9693 20.4384 12.4026C20.4384 12.0087 20.4566 11.6148 20.5113 11.221C20.5659 10.652 20.7661 10.0831 20.757 9.52293C20.6023 8.61265 20.1653 7.73738 19.5099 7.06342C17.9533 5.47918 14.9676 5.01529 12.8739 5.73301C10.407 6.57327 9.74249 8.96275 9.60594 11.2472C9.51491 12.6126 9.93365 13.9518 11.0078 14.8883L11.4356 15.3172C11.5813 15.5098 11.2718 15.7373 11.1261 15.5273Z" fill="black"/>
<path d="M12.1998 12.7439C12.1998 12.7439 11.9176 11.431 10.5886 11.5886C9.44162 11.7286 9.04109 14.3719 11.6445 15.1071" fill="white"/>
<path d="M11.5271 13.9605C11.3178 13.8467 11.1721 13.6542 11.163 13.4179C11.1721 13.2428 11.1994 13.0415 11.1539 12.8664C11.1266 12.7001 10.9446 12.6564 10.808 12.6651C10.6624 12.6914 10.5713 12.8664 10.544 13.0065C10.544 13.0152 10.5349 13.0415 10.5349 13.0502C10.5258 13.094 10.453 13.094 10.4348 13.0502C10.3164 12.7089 10.5804 12.3325 10.9628 12.3763C11.4998 12.4113 11.5727 12.954 11.4725 13.3653C11.4179 13.5404 11.4907 13.6979 11.5909 13.8467L11.6091 13.873C11.6546 13.9255 11.5818 13.9955 11.5271 13.9605Z" fill="black"/>
<path d="M18.8103 11.8161C18.9469 12.4376 19.2018 13.0153 19.5204 13.5579C19.8025 14.2231 19.0743 14.8533 18.428 14.8271C18.3552 14.8271 18.3461 14.7308 18.4098 14.7133C18.8194 14.5908 19.1927 14.3282 19.2564 13.9255C19.2837 13.803 19.2473 13.698 19.1835 13.5929C18.8832 13.0503 18.7011 12.4288 18.7466 11.8161C18.7466 11.7724 18.8103 11.7724 18.8103 11.8161Z" fill="black"/>
<path d="M12.1576 12.7527C11.9482 12.2363 11.4931 11.7461 10.8832 11.7549C10.8286 11.7461 10.7375 11.7636 10.6829 11.7636C10.5282 11.7724 10.4007 11.8249 10.2824 11.9299C9.6998 12.4901 9.79993 13.4791 10.2733 14.1006C10.4371 14.3194 10.6465 14.512 10.8832 14.6695C11.1199 14.8271 11.3838 14.9496 11.666 15.0546C11.7298 15.0721 11.7024 15.1684 11.6387 15.1597C11.0288 15.0371 10.4462 14.7483 10.0457 14.2669C9.42671 13.5492 9.29927 12.35 10.0366 11.6498C10.2005 11.5098 10.428 11.4048 10.6556 11.4048C10.7284 11.4048 10.8377 11.3872 10.9105 11.4048C11.2928 11.4223 11.6569 11.6061 11.8936 11.8949C12.103 12.14 12.2213 12.4376 12.2577 12.7352C12.2577 12.7877 12.1758 12.8052 12.1576 12.7527Z" fill="black"/>
<path d="M17.9145 15.6673C17.9236 15.8073 17.8144 16.0524 17.6141 16.2275C16.5855 15.6235 16.1212 15.9386 16.1212 15.9386C15.7571 15.4047 15.8391 14.6782 16.722 15.2297C17.3319 15.6148 17.7143 15.6761 17.9145 15.6673Z" fill="black"/>
<path d="M17.6023 16.2362C17.3838 16.42 17.0561 16.5338 16.61 16.3588C16.4007 16.28 16.2368 16.1225 16.1094 15.9474C16.1185 15.9474 16.5736 15.6323 17.6023 16.2362Z" fill="white"/>
<path d="M18.0859 15.6411C18.0859 15.6411 17.7035 15.8424 16.7204 15.2384C15.5462 14.512 15.7828 16.0349 16.6112 16.3588C17.476 16.7001 17.922 15.9562 17.9129 15.6761" stroke="black" stroke-width="0.0523908" stroke-miterlimit="10" stroke-linecap="round" stroke-linejoin="round"/>
<path d="M16.1211 15.9474C16.1211 15.9474 16.5853 15.6323 17.614 16.2362" stroke="black" stroke-width="0.0523908" stroke-miterlimit="10" stroke-linecap="round" stroke-linejoin="round"/>
<path d="M16.8176 10.6784C17.0178 10.6609 17.118 10.4333 17.0087 10.2582C16.945 10.1707 16.8631 10.0919 16.7447 10.0482C16.3988 9.94314 15.2701 10.1795 14.7785 10.7221C14.3416 11.221 15.9073 10.7571 16.8176 10.6784Z" fill="black"/>
<path d="M19.221 10.8183C19.0663 10.7746 19.0208 10.5558 19.1482 10.4157C19.2119 10.3457 19.303 10.2844 19.4031 10.2669C19.7126 10.2144 20.4226 10.4857 20.6229 11.0022C20.8049 11.4485 19.9584 10.9934 19.221 10.8183Z" fill="black"/>
<path d="M15.4163 12.709C15.1978 12.7003 15.034 12.5252 15.0522 12.3151L15.0613 12.0701C15.0704 11.86 15.2524 11.7025 15.4709 11.72C15.6894 11.7287 15.8532 11.9038 15.835 12.1138L15.8259 12.3589C15.8168 12.5602 15.6348 12.7178 15.4163 12.709Z" fill="black"/>
<path d="M19.2486 12.8403C19.0484 12.8315 18.8936 12.6652 18.9027 12.4726L18.9118 12.2451C18.9209 12.0525 19.0939 11.9037 19.2942 11.9125C19.4944 11.9212 19.6492 12.0875 19.6401 12.2801L19.631 12.5077C19.6219 12.7002 19.4489 12.849 19.2486 12.8403Z" fill="black"/>
<path d="M16.2326 12.2363C15.9322 12.0437 15.6045 11.9124 15.2404 11.9825C15.122 12 15.0037 12.035 14.9309 12.1138C14.9036 12.1488 14.8398 12.14 14.8398 12.0875C14.8489 11.9124 15.0037 11.7987 15.1493 11.7286C15.4315 11.5886 15.823 11.6149 16.0778 11.7987C16.1689 11.8512 16.4784 12.175 16.3145 12.245C16.2781 12.2626 16.2599 12.2538 16.2326 12.2363Z" fill="black"/>
<path d="M18.8359 12.2801C18.8359 11.9124 19.3093 11.7812 19.6006 11.9124C19.7644 11.9825 19.8828 12.1225 19.9283 12.2888C19.9465 12.3413 19.8646 12.3851 19.8282 12.3413C19.6734 12.1663 19.4094 12.0787 19.2001 12.1838C19.1363 12.2188 19.1272 12.245 19.109 12.2801C19.109 12.4551 18.845 12.4464 18.8359 12.2801Z" fill="black"/>
<path d="M20.9319 11.8249C20.9411 11.7811 20.9502 11.7373 20.9502 11.6936C21.0412 11.1422 21.1049 10.6345 21.1413 10.1531C21.2141 9.1728 21.023 7.40475 19.5574 6.34568C19.43 6.2494 19.2934 6.16187 19.1387 6.0831C19.0112 6.01307 18.8747 5.95181 18.7381 5.89054C17.5457 5.40039 15.6249 4.81395 13.7224 5.12905C12.9942 5.24284 12.266 5.49667 11.5832 5.92555C11.5741 5.92555 11.5741 5.9343 11.5741 5.9343C9.9174 6.98462 9.33481 8.64764 9.02531 10.2144C8.92518 10.7133 8.85236 11.2122 8.78864 11.6673C8.75223 11.9036 8.71581 12.1312 8.6794 12.3413C8.54286 13.1378 8.08771 13.8467 7.60526 14.4069C7.57795 14.4332 7.55064 14.4682 7.52333 14.4944C7.1319 14.9233 6.74048 15.2647 6.46739 15.466C6.44918 15.4747 6.43098 15.4922 6.42188 15.501C7.02267 17.3216 9.31661 18.687 11.4376 19.0984C11.7471 17.7942 11.9565 16.4725 11.6925 15.1159C11.6196 15.0896 11.5832 15.0634 11.5832 15.0459C9.07083 14.2844 9.47136 11.6936 10.6092 11.5535C11.0189 11.501 11.3193 11.5973 11.5559 11.7373C11.8745 11.9649 12.2204 12.5338 12.2204 12.7001C12.2386 12.315 12.4116 11.7811 12.621 11.7636C12.8394 11.7461 13.0579 11.7023 13.2673 11.6236C14.3141 11.2734 15.2699 10.3282 16.1165 9.4879C17.2817 8.33254 18.2284 7.35224 18.902 8.32379C18.9384 8.3763 18.9748 8.42882 19.0021 8.48133C19.8032 8.46383 20.1764 8.91022 20.3676 9.37411C20.3676 9.37411 20.3676 9.37411 20.3676 9.38286C20.5223 9.77673 20.5405 10.1794 20.5587 10.2844C20.5587 10.3019 20.5587 10.3106 20.5678 10.3106C20.5496 10.6608 20.5041 11.2559 20.495 12.0262C20.495 12.3763 20.5314 13.0765 20.5041 13.4791C20.495 13.6017 20.4859 13.7242 20.4768 13.838C20.4677 13.8993 20.4677 13.9605 20.4586 14.013C20.4495 14.0656 20.4495 14.1268 20.4404 14.1881C20.4313 14.2756 20.4222 14.3631 20.4131 14.4594C20.404 14.5382 20.3949 14.617 20.3858 14.6957V14.7045C20.3767 14.7658 20.3676 14.8183 20.3585 14.8708C20.2219 15.571 20.0126 16.315 19.7122 16.7614C19.1114 17.6629 18.638 18.4244 17.7732 18.8095C16.9176 19.1859 15.9435 19.2647 15.9435 19.2647C15.9435 19.2647 16.2166 19.431 16.8629 19.466C17.5001 19.501 17.9735 19.3172 18.4468 19.3959C19.4573 19.5623 21.2323 19.5623 21.2323 19.5623C22.5614 16.2012 20.313 16.0437 20.9319 11.8249Z" fill="black"/>
<path d="M13.8436 14.4419C14.0985 14.3106 14.3442 14.1706 14.6264 14.1006C14.6537 14.1006 14.672 14.0918 14.7266 14.1093C14.9177 14.2494 14.3625 14.5995 14.2623 14.687C14.2896 14.652 14.2805 14.5907 14.235 14.5732C14.2259 14.5732 14.2259 14.5645 14.2168 14.5645C14.1986 14.5645 14.1986 14.5645 14.1986 14.5645C14.4262 14.4857 14.6537 14.3982 14.8722 14.2931C14.9997 14.2406 15.1726 14.1268 15.3092 14.1181C15.3638 14.1181 15.4275 14.1706 15.4184 14.2231C15.4093 14.2931 15.3911 14.3194 15.3729 14.3632C15.3547 14.3982 15.3183 14.4507 15.3092 14.4857C15.3092 14.4944 15.3001 14.4769 15.3001 14.4769C15.3001 14.4857 15.3547 14.4857 15.3638 14.4769C15.5094 14.4594 15.6642 14.4069 15.8098 14.3544C15.8371 14.3457 15.8553 14.3807 15.828 14.3982C15.6733 14.4944 15.5094 14.5995 15.3092 14.617C15.1817 14.6257 15.118 14.512 15.1635 14.4069C15.1817 14.3457 15.2272 14.2756 15.2454 14.2231C15.2454 14.2406 15.2636 14.2669 15.2818 14.2756C15.3001 14.2844 15.3092 14.2756 15.3001 14.2844C15.209 14.3106 15.027 14.4069 14.945 14.4419C14.7084 14.547 14.4808 14.6432 14.2259 14.7133C14.2077 14.7133 14.2077 14.722 14.1804 14.7133C14.1076 14.7045 14.0894 14.617 14.144 14.5732C14.2532 14.4857 14.3807 14.4157 14.4808 14.3281C14.5354 14.2844 14.5991 14.2231 14.6355 14.1706C14.6355 14.1794 14.6446 14.1969 14.6537 14.2056C14.5718 14.2144 14.408 14.2581 14.3078 14.3019C14.1622 14.3544 14.0074 14.4157 13.8618 14.4769C13.8436 14.4944 13.8163 14.4507 13.8436 14.4419Z" fill="black"/>
<path d="M19.7402 14.4419C19.8221 14.3544 20.168 13.9343 20.259 14.1531C20.259 14.1706 20.259 14.1881 20.259 14.1969C20.2226 14.3719 20.1043 14.5207 20.0133 14.6695C20.0315 14.6257 19.9951 14.5645 19.9495 14.5557C19.9313 14.5557 19.9222 14.5557 19.9131 14.5557C19.904 14.5557 19.9131 14.5557 19.9222 14.547C20.1043 14.4332 20.2408 14.2931 20.4229 14.1706C20.4593 14.1531 20.5048 14.1268 20.5503 14.1531C20.5958 14.1881 20.5867 14.2406 20.5685 14.2756C20.5503 14.3194 20.5321 14.3544 20.5139 14.3982C20.5048 14.4069 20.4957 14.4157 20.4775 14.4069C20.4684 14.4069 20.4684 14.3982 20.4684 14.3894C20.4684 14.3719 20.4684 14.2581 20.4684 14.2406C20.4593 14.2231 20.4684 14.2319 20.4684 14.2406C20.4684 14.2494 20.4866 14.2669 20.5048 14.2669C20.5139 14.2669 20.5321 14.2669 20.5321 14.2669C20.3774 14.4419 20.1953 14.6082 19.9859 14.722C19.9222 14.7483 19.8494 14.6958 19.8585 14.6257C19.8585 14.617 19.8676 14.5995 19.8767 14.5907C19.9404 14.5032 20.0133 14.4157 20.0679 14.3281C20.0952 14.2844 20.1316 14.2231 20.1407 14.1794C20.1407 14.1969 20.1771 14.2231 20.1862 14.2144C20.0406 14.2669 19.9131 14.3807 19.7857 14.4682C19.7493 14.4945 19.722 14.4594 19.7402 14.4419Z" fill="black"/>
</g>
</svg>
