<svg width="28" height="27" viewBox="0 0 28 27" fill="none" xmlns="http://www.w3.org/2000/svg">
<rect x="0.6" y="0.6" width="26.655" height="25.5833" rx="12.7916" fill="white"/>
<rect x="0.6" y="0.6" width="26.655" height="25.5833" rx="12.7916" stroke="#2C2C2C" stroke-width="1.2"/>
<mask id="mask0_1185_26630" style="mask-type:alpha" maskUnits="userSpaceOnUse" x="0" y="0" width="28" height="27">
<ellipse cx="13.8818" cy="13.3477" rx="13.8818" ry="13.3477" fill="#D9D9D9"/>
</mask>
<g mask="url(#mask0_1185_26630)">
<path d="M21.494 24.3674C21.4303 24.4112 21.3575 24.455 21.2938 24.4987C21.221 24.5425 21.1572 24.5862 21.0844 24.6213C21.0207 24.6563 20.9661 24.6913 20.9023 24.7263C20.8932 24.735 20.8841 24.735 20.875 24.7438C20.6657 24.8663 20.4472 24.9801 20.2287 25.0851C20.165 25.1202 20.0922 25.1552 20.0285 25.1814C20.0285 25.1814 20.0194 25.1902 20.0103 25.1902C19.9374 25.2252 19.8646 25.2602 19.7918 25.2952C19.6461 25.3652 19.4914 25.4265 19.3457 25.4878C19.2729 25.5228 19.191 25.549 19.1182 25.5753C19.0454 25.6016 18.9634 25.6366 18.8906 25.6628C18.8178 25.6891 18.7359 25.7241 18.663 25.7504C18.663 25.7504 18.663 25.7504 18.6539 25.7504C18.5811 25.7766 18.4992 25.8029 18.4264 25.8291C18.2625 25.8816 18.0895 25.9342 17.9257 25.9867C17.8711 26.0042 17.8074 26.0217 17.7527 26.0392C17.5798 26.0917 17.4068 26.1355 17.2339 26.1705C17.1701 26.188 17.1064 26.1967 17.0336 26.2142C16.8698 26.2493 16.6968 26.2843 16.5329 26.3193C16.4965 26.328 16.4692 26.328 16.4328 26.3368C16.3782 26.3455 16.3145 26.3543 16.2599 26.363C16.1779 26.3718 16.1051 26.3893 16.0232 26.398C15.9868 26.4068 15.9504 26.4068 15.9139 26.4156C15.8684 26.4243 15.8138 26.4331 15.7592 26.4331C15.6135 26.4506 15.4588 26.4681 15.3131 26.4856C15.2676 26.4943 15.213 26.4943 15.1675 26.5031H15.1584C15.0947 26.5118 15.031 26.5118 14.9672 26.5206C14.9035 26.5293 14.8398 26.5293 14.7761 26.5293C14.7397 26.5293 14.6941 26.5381 14.6577 26.5381C14.5849 26.5381 14.5212 26.5468 14.4575 26.5468C14.3664 26.5468 14.2845 26.5556 14.1935 26.5556C14.1025 26.5556 14.0205 26.5556 13.9295 26.5556C13.8658 26.5556 13.8021 26.5556 13.7383 26.5556C9.8969 26.5031 6.44689 24.9363 3.98 22.4506C3.98 22.4506 3.98 22.4418 3.9709 22.4418C3.69781 22.2055 3.93448 20.9451 5.03594 20.1486C6.41958 19.1421 9.73305 18.5119 9.73305 18.5119C9.73305 18.5119 11.0166 18.3106 15.7774 19.2646C18.5629 19.8248 20.6839 20.6388 21.8673 22.8445C22.113 23.2996 22.3588 23.9998 21.494 24.3674Z" fill="white"/>
<path d="M15.8048 19.1684C17.5526 19.5097 19.4187 19.8773 20.857 20.9889C21.3394 21.3653 21.658 21.9167 21.922 22.4506C22.0494 22.7132 22.1769 22.9845 22.277 23.2734C22.3316 23.4659 22.4136 23.6848 22.368 23.9123C22.3589 23.9736 22.3043 24.0524 22.2588 24.0961C22.0494 24.2975 21.8219 24.42 21.5943 24.5775C20.2562 25.4703 18.7178 26.1005 17.1248 26.4331C13.5746 27.1771 9.73317 26.5994 6.61087 24.8051C5.57313 24.2012 4.61732 23.4659 3.79806 22.5994C3.70703 22.4944 3.70703 22.3193 3.70703 22.2056C3.71613 21.943 3.78896 21.6892 3.87999 21.4528C4.09846 20.9102 4.38065 20.3675 4.8631 19.9911C5.20902 19.7636 5.58224 19.571 5.96456 19.4134C7.16615 18.9233 8.43145 18.5819 9.73317 18.4419C9.84241 18.4331 9.86061 18.5819 9.75138 18.5994C8.50428 18.8445 7.26628 19.2121 6.11021 19.711C5.69147 19.9124 5.24543 20.0874 4.90862 20.4025C4.59002 20.7351 4.36244 21.1465 4.18038 21.5666C4.06205 21.8204 3.98012 22.2231 4.01653 22.4244C4.59002 23.0808 5.26363 23.6585 5.99187 24.1574C9.97895 26.8357 16.0324 27.0108 20.2744 24.7789C20.6567 24.5775 21.0299 24.35 21.3849 24.1136C21.5579 23.9999 21.7399 23.9036 21.8765 23.7723C21.8856 23.7635 21.8765 23.7723 21.8765 23.781C21.8765 23.7898 21.8674 23.7986 21.8674 23.7986C21.8765 23.6935 21.8401 23.5535 21.7946 23.4134C21.6307 22.9058 21.3667 22.3719 21.0845 21.908C20.6385 21.2165 19.8829 20.7789 19.1183 20.4288C18.5903 20.1924 18.035 20.0086 17.4707 19.8336C16.9063 19.6585 16.3328 19.5097 15.7593 19.3784C15.6137 19.3434 15.6592 19.1421 15.8048 19.1684Z" fill="black"/>
<path d="M8.36719 16.954C8.36719 16.954 9.21376 16.7615 9.56877 16.7352L9.67801 17.6893C9.67801 17.6805 8.37629 17.1991 8.36719 16.954Z" fill="black"/>
<path d="M22.7787 29.7942H1.49609C1.49609 29.7942 2.85243 27.0021 3.32578 23.8511C3.65349 21.6542 4.04491 20.4726 5.2556 19.7724C6.62105 18.9846 8.82395 18.6258 9.71604 18.3982C9.71604 18.442 9.72514 18.477 9.72514 18.5207C9.72514 18.5207 10.7083 21.3303 13.2662 22.3282C15.3508 23.1422 16.5888 22.5995 16.7799 21.698C16.8983 21.1203 16.525 20.175 16.3339 19.8686C16.2246 19.7811 16.1518 19.6498 16.1154 19.5185L16.0426 19.2297C16.2702 19.1859 16.4886 19.1247 16.698 19.0459C17.8723 19.3435 20.1389 19.9124 21.5225 21.6017C21.8685 22.0218 22.9517 24.2537 22.7514 28.0262C22.6786 29.9868 22.7787 29.7942 22.7787 29.7942Z" fill="black"/>
<path d="M6.00338 29.7942L5.59375 26.547" stroke="white" stroke-width="0.0523908" stroke-miterlimit="10" stroke-linecap="round" stroke-linejoin="round"/>
<path d="M21.9047 25.4441C21.9047 25.4441 21.6316 26.083 21.7135 26.722C21.7954 27.3609 22.0321 28.2975 21.6953 29.7942" stroke="white" stroke-width="0.0523908" stroke-miterlimit="10" stroke-linecap="round" stroke-linejoin="round"/>
<path d="M12.5844 23.9562C7.55046 22.5557 6.28516 19.7111 6.28516 19.7111C6.28516 19.7111 7.07711 19.2385 7.45033 18.7483C7.67791 18.4507 9.72606 18.1094 9.72606 18.1094C9.76248 18.4857 9.72606 18.1094 9.75337 18.5208C9.75337 18.5208 10.7365 21.3304 13.2944 22.3282C15.379 23.1422 16.617 22.5995 16.8081 21.698C16.9265 21.1203 16.5533 20.175 16.3621 19.8687C16.2529 19.7811 16.18 19.6499 16.1436 19.5186L16.0708 19.2297C16.5897 19.1247 17.0812 18.9321 17.5091 18.6783C17.5273 18.7046 17.5364 18.7308 17.5455 18.7571C17.7366 19.2035 18.3192 19.6061 18.3192 19.6061C19.5299 22.3719 17.7093 25.3829 12.5844 23.9562Z" fill="black"/>
<path d="M18.6836 19.4836C18.6836 19.4836 19.1023 19.2911 19.5211 19.3348C19.9398 19.3786 21.9333 20.9278 22.1245 21.2517C22.3248 21.5755 22.3157 22.6083 22.079 22.7396C21.8423 22.8709 21.7058 22.5821 21.7058 22.5821C21.7058 22.5821 21.8787 21.6368 21.6876 21.4617C21.4964 21.2867 19.6485 19.7987 19.5848 19.79C19.5211 19.7812 19.1752 20.0613 19.1752 20.0613L18.6836 19.4836Z" fill="black"/>
<path d="M7.6482 18.9496C7.6482 18.9496 6.7015 18.4857 6.34648 18.4857C5.99147 18.4857 3.9251 19.7111 3.64291 20.35C3.36072 20.989 3.74305 22.2756 3.74305 22.2756L4.24371 21.7242C4.24371 21.7242 4.10716 20.7614 4.25281 20.4113C4.39846 20.0612 6.04609 19.0284 6.19173 19.0546C6.33738 19.0721 7.14754 19.5711 7.14754 19.5711L7.6482 18.9496Z" fill="black"/>
<path d="M9.79688 20.6389C10.6708 22.2494 12.4185 24.3938 15.3406 25.4004C17.9713 26.3107 17.8075 23.256 17.4251 21.4267C14.8035 21.9781 12.1727 22.0218 9.79688 20.6389Z" fill="white"/>
<path d="M17.4252 21.4354C17.3251 20.954 17.2067 20.5601 17.1248 20.3413C16.9427 19.8686 16.6697 19.4485 16.4239 19.1334C16.3055 19.1684 16.1872 19.1947 16.0689 19.2209L16.1417 19.5098C16.1781 19.6498 16.2509 19.7724 16.3602 19.8599C16.3784 19.8949 16.4057 19.9387 16.433 19.9912C14.3666 20.7614 11.927 19.7461 11.927 19.7461C11.1897 19.7111 11.2443 20.4113 11.5902 21.2428C10.2794 20.0437 9.74232 18.5207 9.74232 18.5207C9.72412 18.2581 9.70591 18.0043 9.6786 17.7505C9.6786 17.7505 9.00498 18.1093 9.12332 18.9146C9.17794 19.256 9.38731 19.8949 9.79694 20.6389C12.1728 22.0218 14.8036 21.978 17.4252 21.4354Z" fill="white"/>
<path d="M17.3902 21.4091C17.3629 21.3653 17.3538 21.3391 17.3356 21.2866C17.2264 20.9452 17.108 20.5864 16.9442 20.2713C16.753 19.9036 16.5072 19.571 16.2342 19.2647L16.489 19.3435L16.1158 19.4398L16.2979 19.1684C16.3161 19.2472 16.3616 19.431 16.3798 19.501C16.4071 19.6061 16.489 19.6761 16.5528 19.7548C16.5437 19.8249 16.5346 19.8949 16.5163 19.9562C16.5346 20.0087 16.5163 20.0699 16.4617 20.0962C16.1977 20.2187 15.9065 20.315 15.6152 20.3763C14.541 20.5864 13.4487 20.35 12.42 20.0612C12.2198 19.9999 12.0377 19.9562 11.8192 19.9737L11.9012 19.9912C11.8465 19.9912 11.7828 19.9912 11.7282 20.0087C11.4551 20.0875 11.5826 20.5426 11.6372 20.7614C11.6827 20.9015 11.7282 21.0415 11.7919 21.1815C11.8465 21.2953 11.7828 21.4266 11.6645 21.4791C11.5735 21.5141 11.4824 21.4879 11.4187 21.4266C11.2093 21.2253 11.0091 21.024 10.827 20.8052C10.2717 20.14 9.8348 19.4135 9.51619 18.617L9.73467 18.7658C9.60722 18.7658 9.50709 18.6695 9.49799 18.5557L9.43427 17.7942L9.78018 17.9693C9.37055 18.2056 9.25221 18.6958 9.38875 19.1159C9.5253 19.6061 9.74377 20.0962 9.98955 20.5513L9.89852 20.4638C12.1105 21.8905 14.8687 22.0043 17.3902 21.4091ZM17.4631 21.4529C17.1627 21.6629 16.6438 21.838 16.2615 21.9168C15.3603 22.1093 14.4136 21.9955 13.5124 21.8555C13.2302 21.8117 12.8206 21.7592 12.5293 21.7155L12.0468 21.6192C11.4005 21.4704 10.7633 21.2691 10.1443 21.024L9.91672 20.9277L9.68005 20.8314C9.65274 20.8227 9.62543 20.7964 9.60722 20.7702C9.30683 20.21 9.03374 19.6236 8.9063 18.9934C8.78796 18.4419 9.06105 17.838 9.57081 17.5492C9.71646 17.4704 9.90762 17.5667 9.91672 17.7242L9.98044 18.4945C9.98044 18.4945 9.74377 18.2844 9.75287 18.2844C9.853 18.2844 9.94403 18.3457 9.97134 18.4332C10.2535 19.1684 10.6814 19.8774 11.2002 20.4901C11.3732 20.7001 11.5644 20.8839 11.7555 21.0765L11.3823 21.3216C11.2002 20.8489 10.9545 20.245 11.2822 19.7724C11.4369 19.5798 11.7009 19.5098 11.9467 19.5185L12.0286 19.536C12.156 19.6936 12.3381 19.7636 12.5111 19.8161C13.4031 20.0962 14.3681 20.1487 15.3057 20.0787C15.6789 20.0437 16.043 19.9737 16.4071 19.8861L16.3525 20.0262C16.2888 19.9999 16.2342 19.9824 16.1704 19.9737L16.216 20.0262C16.043 19.8861 15.9338 19.6498 15.8974 19.4398L15.8518 19.2647C15.8245 19.1422 15.9065 19.0196 16.0339 18.9934L16.3707 18.9146H16.3889C16.4799 18.8883 16.5801 18.9321 16.6256 19.0021C16.9897 19.5448 17.2628 20.1575 17.3811 20.7964C17.4175 20.9452 17.4357 21.1115 17.4631 21.2691C17.454 21.3216 17.4631 21.4004 17.4631 21.4529Z" fill="black"/>
<path d="M8.36719 16.9541C8.36719 16.9541 10.6156 17.0241 12.327 17.4618C12.4908 17.5055 12.4908 18.5208 12.509 18.6871C12.5727 19.2823 11.2801 20.2976 11.4258 20.8315C11.6169 21.523 16.7783 25.4092 16.8238 25.8643C16.8693 26.3195 13.0825 26.2057 10.8341 23.6149C8.57655 21.0241 8.74951 20.5515 8.74951 20.5515C8.74951 20.5515 8.36719 18.0657 8.36719 16.9541Z" fill="black"/>
<path d="M18.4651 17.8906L19.0477 18.1269C19.2298 18.197 19.3208 18.3983 19.2571 18.5821C18.9931 19.3523 18.3377 21.2692 18.3104 21.9344C18.274 22.7746 16.4716 28.175 16.4716 28.175C16.4716 28.175 15.3701 26.7834 16.1803 25.4092C16.8175 24.3239 16.8539 22.0044 16.7902 21.698C16.7083 21.2954 16.3623 20.3501 16.1712 19.7549C16.071 19.4311 16.0528 19.2298 16.0528 19.2298C16.0528 19.2298 17.309 19.0285 18.4651 17.8906Z" fill="black"/>
<path d="M11.6898 19.3261C11.8356 19.3261 11.9538 19.1968 11.9538 19.0373C11.9538 18.8777 11.8356 18.7484 11.6898 18.7484C11.544 18.7484 11.4258 18.8777 11.4258 19.0373C11.4258 19.1968 11.544 19.3261 11.6898 19.3261Z" fill="white"/>
<path d="M16.3796 25.1553C16.3067 25.6279 16.2339 26.1093 16.2703 26.5907C16.3887 27.2997 16.4342 28.0086 16.4979 28.7176C16.507 28.8927 16.243 28.9102 16.2248 28.7351C16.1975 28.0262 16.1793 27.3084 16.0883 26.5995C16.0701 26.1006 16.1611 25.6104 16.2612 25.129C16.2794 25.0677 16.3887 25.0852 16.3796 25.1553Z" fill="white"/>
<path d="M18.8992 19.8862C18.7354 20.6651 18.5533 21.4529 18.2529 22.1969C17.7978 23.1246 17.1788 23.9649 16.6508 24.8402C16.6053 24.919 16.4779 24.8577 16.5143 24.7789C16.9512 23.7899 17.5884 22.9058 18.0163 21.9255C18.0527 21.8205 18.2529 21.2428 18.2893 21.129C18.435 20.7002 18.5897 20.2713 18.7627 19.8511C18.7991 19.7724 18.9174 19.7986 18.8992 19.8862Z" fill="black"/>
<path d="M17.6441 25.0241C17.8101 25.0241 17.9445 24.8948 17.9445 24.7353C17.9445 24.5757 17.8101 24.4464 17.6441 24.4464C17.4782 24.4464 17.3438 24.5757 17.3438 24.7353C17.3438 24.8948 17.4782 25.0241 17.6441 25.0241Z" fill="white"/>
<path d="M16.6592 21.4967C16.468 22.3982 15.23 22.9409 13.1455 22.1269C10.979 21.2866 10.0414 19.2823 9.80469 18.6871C11.0882 16.3764 10.1961 14.7746 10.1961 14.7746C13.1546 14.5296 15.7398 17.8556 15.7398 17.8556L16.1403 19.5011C16.1767 19.6411 16.2496 19.7637 16.3588 19.8512C16.55 20.175 16.7775 20.919 16.6592 21.4967Z" fill="white"/>
<path d="M9.76098 18.7134C9.93394 18.4595 10.0432 18.1619 10.116 17.8731C10.2525 17.2692 10.2981 16.6565 10.3072 16.0438V15.8162C10.2798 15.5886 10.1979 15.3523 10.1069 15.1423C9.98855 14.8622 10.4164 14.6871 10.5529 14.9672C10.5711 15.0022 10.5711 15.0635 10.5711 15.0985C10.5984 16.2889 10.6531 17.8206 9.87021 18.8096C9.8156 18.8621 9.70636 18.7834 9.76098 18.7134Z" fill="black"/>
<path d="M15.8407 17.838C15.9772 17.9168 16.0227 18.0218 16.0409 18.1269C16.0956 18.3369 16.0774 18.5645 16.132 18.7833C16.1775 18.9934 16.314 19.1947 16.3504 19.4135C16.396 19.6411 16.5325 20.1225 16.5871 20.3588C16.6053 20.4113 16.5689 20.4726 16.5052 20.4814C16.4688 20.4901 16.4415 20.4814 16.4142 20.4638C16.2958 20.3676 16.2412 20.2713 16.1684 20.1487C16.05 19.9387 15.9681 19.7461 15.8953 19.5098C15.8316 19.2997 15.8589 19.0722 15.8043 18.8534C15.7588 18.6433 15.6313 18.442 15.5858 18.2232C15.5585 18.1181 15.5494 18.0043 15.6313 17.873C15.6859 17.8205 15.777 17.803 15.8407 17.838Z" fill="black"/>
<path d="M16.4955 20.1487C14.7568 20.0612 13.3368 19.536 11.9531 17.1641C13.1183 18.1531 14.4928 18.5295 15.9402 18.7045L16.1314 19.5098C16.1678 19.6498 16.3863 20.0612 16.4955 20.1487Z" fill="black"/>
<path d="M16.4226 19.825C16.7321 20.3851 16.9142 21.0854 16.723 21.7068C16.5774 22.1444 16.1586 22.4683 15.7035 22.5908C14.6475 22.8622 13.4277 22.4333 12.4901 21.9519C11.3341 21.3304 10.4784 20.2889 9.93222 19.151C9.89581 19.0635 10.0233 18.9935 10.0779 19.081C10.269 19.4486 10.4875 19.8075 10.7333 20.1313C10.9791 20.4639 11.2612 20.7703 11.5799 21.0416C12.5084 21.8468 13.7646 22.3458 15.0208 22.3458C16.3134 22.3107 16.8049 21.6543 16.5045 20.4464C16.459 20.2539 16.3862 20.0525 16.2861 19.8862C16.2315 19.8162 16.368 19.7374 16.4226 19.825Z" fill="black"/>
<path d="M19.943 9.31282C20.1069 10.048 20.1888 10.6432 19.7427 12.6038C19.3058 14.5557 20.3709 14.9583 17.8493 18.083C16.8207 19.3609 14.3265 19.0021 12.3057 17.6804C11.6229 17.234 11.3316 16.0874 10.8219 15.2734C10.4213 14.6345 10.2393 15.2997 9.71132 14.7482C8.99218 13.9955 8.12741 12.4813 8.55524 9.80297C9.24707 5.46163 12.8245 4.95397 15.4735 5.43537C18.1406 5.92552 19.5061 7.37847 19.943 9.31282Z" fill="white"/>
<path d="M10.1681 15.5273C9.95877 15.186 9.68568 14.8884 9.4308 14.5733C9.18502 14.2494 8.98476 13.8906 8.8209 13.523C7.73765 10.9672 8.15639 7.36981 10.8144 5.86434C11.9159 5.25165 13.2449 5.10286 14.4829 5.19914C17.1319 5.38294 19.5624 6.5558 20.1358 9.25164C20.4453 10.442 20.0266 11.6674 19.7899 12.8315C19.6807 13.4092 19.7717 14.0043 19.7626 14.5995C19.7535 15.2035 19.5806 15.8074 19.3439 16.3676C19.1982 16.7527 18.9434 17.0941 18.6794 17.4091C18.2424 17.9168 17.8055 18.4332 17.2502 18.8271C17.1228 18.9146 16.8952 18.9584 16.7405 18.9759C16.3126 19.0372 15.8939 19.0547 15.466 19.0284C13.7911 18.9584 11.9978 18.1794 11.3242 16.6214C11.2969 16.5601 11.3879 16.5164 11.4243 16.5689C12.2982 17.8993 13.9003 18.5558 15.4934 18.6433C15.9849 18.6695 16.4856 18.6608 16.968 18.5645C17.2047 18.4507 17.4141 18.2494 17.6143 18.0656C18.1059 17.593 18.6066 17.0853 18.9616 16.5076C19.3894 15.7286 19.6261 14.8796 19.5533 13.9956C19.5351 13.6017 19.526 13.1903 19.6079 12.7965C19.6807 12.4026 19.7717 12.0262 19.8264 11.6236C19.881 11.2385 19.9083 10.8446 19.9083 10.4595C19.8628 9.33041 19.4804 8.1663 18.734 7.29103C17.0864 5.32168 13.1903 4.80527 10.9965 6.15318C9.61286 6.97593 8.96655 8.51641 8.75718 10.0131C8.43858 11.8074 8.52961 13.5755 10.0134 14.8796L10.4503 15.3173C10.6233 15.5098 10.3138 15.7374 10.1681 15.5273Z" fill="black"/>
<path d="M11.2428 12.7439C11.2428 12.7439 10.9606 11.431 9.63155 11.5886C8.48459 11.7286 8.08406 14.3719 10.6875 15.1071" fill="white"/>
<path d="M10.5662 13.9605C10.3568 13.8467 10.2112 13.6542 10.2021 13.4179C10.2112 13.2428 10.2385 13.0415 10.193 12.8664C10.1657 12.7001 9.98361 12.6564 9.84707 12.6651C9.70142 12.6914 9.61039 12.8664 9.58309 13.0065C9.58309 13.0152 9.57398 13.0415 9.57398 13.0502C9.56488 13.094 9.49206 13.094 9.47385 13.0502C9.35551 12.7089 9.6195 12.3325 10.0018 12.3763C10.5389 12.4113 10.6117 12.954 10.5116 13.3653C10.457 13.5404 10.5298 13.6979 10.6299 13.8467L10.6481 13.873C10.6936 13.9255 10.6208 13.9955 10.5662 13.9605Z" fill="black"/>
<path d="M17.8533 11.8161C17.9898 12.4376 18.2447 13.0153 18.5633 13.5579C18.8455 14.2231 18.1173 14.8533 17.471 14.8271C17.3982 14.8271 17.389 14.7308 17.4528 14.7133C17.8624 14.5908 18.2356 14.3282 18.2993 13.9255C18.3267 13.803 18.2902 13.698 18.2265 13.5929C17.9261 13.0503 17.7441 12.4288 17.7896 11.8161C17.7896 11.7724 17.8533 11.7724 17.8533 11.8161Z" fill="black"/>
<path d="M11.1967 12.7527C10.9873 12.2363 10.5321 11.7461 9.92224 11.7549C9.86763 11.7461 9.7766 11.7636 9.72198 11.7636C9.56723 11.7724 9.43979 11.8249 9.32145 11.9299C8.73886 12.4901 8.83899 13.4791 9.31235 14.1006C9.4762 14.3194 9.68557 14.512 9.92224 14.6695C10.1589 14.8271 10.4229 14.9496 10.7051 15.0546C10.7688 15.0721 10.7415 15.1684 10.6778 15.1597C10.0679 15.0371 9.4853 14.7483 9.08477 14.2669C8.46577 13.5492 8.33833 12.35 9.07567 11.6498C9.23952 11.5098 9.4671 11.4048 9.69467 11.4048C9.76749 11.4048 9.87673 11.3872 9.94955 11.4048C10.3319 11.4223 10.696 11.6061 10.9327 11.8949C11.142 12.14 11.2604 12.4376 11.2968 12.7352C11.2968 12.7877 11.2149 12.8052 11.1967 12.7527Z" fill="black"/>
<path d="M17.1563 15.6935C16.8741 15.9123 16.4827 15.9211 16.1459 15.8423C16.0366 15.8161 15.9092 15.7985 15.8455 15.6848C15.7818 15.5885 15.8455 15.4659 15.9638 15.4484C16.0822 15.4222 16.155 15.4747 16.2551 15.501C16.5191 15.5885 16.8104 15.641 17.0835 15.5535C17.1563 15.536 17.2291 15.641 17.1563 15.6935Z" fill="black"/>
<path d="M16.1554 15.1334C16.3465 15.4573 16.0735 15.8424 15.7457 15.9649C15.6729 15.9999 15.327 16.07 15.3361 15.9387C15.3361 15.9212 15.3543 15.9037 15.3725 15.8949C15.7002 15.7549 15.9369 15.466 15.9915 15.1334C16.0006 15.0634 16.1008 15.0459 16.1372 15.1072L16.1554 15.1334Z" fill="black"/>
<path d="M14.4553 12.7088C14.2369 12.7 14.073 12.525 14.0912 12.3149L14.1003 12.0698C14.1094 11.8598 14.2915 11.7022 14.51 11.7197C14.7284 11.7285 14.8923 11.9035 14.8741 12.1136L14.865 12.3587C14.8559 12.56 14.6738 12.7175 14.4553 12.7088Z" fill="black"/>
<path d="M18.2877 12.8401C18.0874 12.8314 17.9327 12.6651 17.9418 12.4725L17.9509 12.245C17.96 12.0524 18.1329 11.9036 18.3332 11.9124C18.5335 11.9211 18.6882 12.0874 18.6791 12.28L18.67 12.5075C18.6609 12.7001 18.488 12.8489 18.2877 12.8401Z" fill="black"/>
<path d="M15.2717 12.2362C14.9713 12.0436 14.6436 11.9123 14.2794 11.9823C14.1611 11.9998 14.0428 12.0349 13.9699 12.1136C13.9426 12.1486 13.8789 12.1399 13.8789 12.0874C13.888 11.9123 14.0428 11.7985 14.1884 11.7285C14.4706 11.5885 14.862 11.6147 15.1169 11.7985C15.2079 11.8511 15.5174 12.1749 15.3536 12.2449C15.3172 12.2624 15.299 12.2537 15.2717 12.2362Z" fill="black"/>
<path d="M17.8789 12.2799C17.8789 11.9123 18.3523 11.781 18.6436 11.9123C18.8074 11.9823 18.9257 12.1224 18.9713 12.2887C18.9895 12.3412 18.9075 12.385 18.8711 12.3412C18.7164 12.1662 18.4524 12.0786 18.243 12.1837C18.1793 12.2187 18.1702 12.2449 18.152 12.2799C18.152 12.455 17.888 12.4462 17.8789 12.2799Z" fill="black"/>
<path d="M15.7114 10.792C15.9025 10.8533 16.0937 10.687 16.0573 10.4856C16.0391 10.3806 15.9935 10.2756 15.9025 10.1968C15.6294 9.96048 14.5007 9.75041 13.8179 10.0568C13.2172 10.3368 14.8375 10.5119 15.7114 10.792Z" fill="black"/>
<path d="M18.4349 10.932C18.2802 10.9845 18.1163 10.827 18.1436 10.6432C18.1527 10.5469 18.1891 10.4506 18.262 10.3806C18.4804 10.1705 19.2269 10.0042 19.7002 10.3281C20.1099 10.5994 19.145 10.6782 18.4349 10.932Z" fill="black"/>
<path d="M18.8814 6.75709C18.4171 6.34571 17.8345 5.94309 17.1245 5.67176C15.0217 4.849 13.0646 4.87526 11.5262 5.51421C11.4807 4.65644 11.244 3.34354 10.1972 3.12472C8.61327 2.78337 9.15945 4.44638 9.65101 5.48795C9.65101 5.48795 7.7576 3.85995 6.92923 4.96279C6.13727 6.02186 8.12171 7.17722 8.12171 7.17722C8.12171 7.17722 5.18147 7.40479 5.80047 9.01529C6.16458 9.94307 7.38438 9.63673 8.35839 9.2166C7.56643 12.2363 8.94098 14.2932 9.65101 15.1159C10.3792 15.9562 10.443 16.5951 10.443 16.5951C10.8162 16.3938 10.3701 15.4923 10.3883 15.0196C8.11261 14.1794 8.52224 11.7374 9.6328 11.5973C10.798 11.4573 11.1621 12.4551 11.2258 12.7002C11.6445 12.2188 11.6445 11.7549 11.5626 11.2735C11.244 9.51419 11.4261 8.56015 12.5275 8.33258C14.2844 7.96496 15.8683 8.82273 17.962 9.09406C18.7357 9.19909 19.2182 8.51638 19.7917 8.76146C19.8554 8.94526 19.91 9.12907 19.9555 9.32163C19.9919 9.47043 20.0192 9.61047 20.0375 9.75926C20.1285 8.53389 19.8645 7.63236 18.8814 6.75709Z" fill="black"/>
</g>
</svg>
