<svg width="29" height="27" viewBox="0 0 29 27" fill="none" xmlns="http://www.w3.org/2000/svg">
<rect x="1.52969" y="0.6" width="26.655" height="25.5833" rx="12.7916" fill="white"/>
<rect x="1.52969" y="0.6" width="26.655" height="25.5833" rx="12.7916" stroke="#353535" stroke-width="1.2"/>
<mask id="mask0_1185_26650" style="mask-type:alpha" maskUnits="userSpaceOnUse" x="0" y="0" width="29" height="27">
<ellipse cx="14.8115" cy="13.3477" rx="13.8818" ry="13.3477" fill="#D9D9D9"/>
</mask>
<g mask="url(#mask0_1185_26650)">
<path d="M22.4237 24.3674C22.36 24.4112 22.2872 24.455 22.2235 24.4987C22.1506 24.5425 22.0869 24.5862 22.0141 24.6213C21.9504 24.6563 21.8958 24.6913 21.832 24.7263C21.8229 24.735 21.8138 24.735 21.8047 24.7438C21.5954 24.8663 21.3769 24.9801 21.1584 25.0851C21.0947 25.1202 21.0219 25.1552 20.9582 25.1814C20.9582 25.1814 20.9491 25.1902 20.9399 25.1902C20.8671 25.2252 20.7943 25.2602 20.7215 25.2952C20.5758 25.3652 20.4211 25.4265 20.2754 25.4878C20.2026 25.5228 20.1207 25.549 20.0479 25.5753C19.975 25.6016 19.8931 25.6366 19.8203 25.6628C19.7475 25.6891 19.6655 25.7241 19.5927 25.7504C19.5927 25.7504 19.5927 25.7504 19.5836 25.7504C19.5108 25.7766 19.4289 25.8029 19.356 25.8291C19.1922 25.8816 19.0192 25.9342 18.8554 25.9867C18.8008 26.0042 18.737 26.0217 18.6824 26.0392C18.5095 26.0917 18.3365 26.1355 18.1636 26.1705C18.0998 26.188 18.0361 26.1967 17.9633 26.2142C17.7994 26.2493 17.6265 26.2843 17.4626 26.3193C17.4262 26.328 17.3989 26.328 17.3625 26.3368C17.3079 26.3455 17.2442 26.3543 17.1895 26.363C17.1076 26.3718 17.0348 26.3893 16.9529 26.398C16.9165 26.4068 16.88 26.4068 16.8436 26.4156C16.7981 26.4243 16.7435 26.4331 16.6889 26.4331C16.5432 26.4506 16.3885 26.4681 16.2428 26.4856C16.1973 26.4943 16.1427 26.4943 16.0972 26.5031H16.0881C16.0244 26.5118 15.9606 26.5118 15.8969 26.5206C15.8332 26.5293 15.7695 26.5293 15.7058 26.5293C15.6694 26.5293 15.6238 26.5381 15.5874 26.5381C15.5146 26.5381 15.4509 26.5468 15.3872 26.5468C15.2961 26.5468 15.2142 26.5556 15.1232 26.5556C15.0321 26.5556 14.9502 26.5556 14.8592 26.5556C14.7955 26.5556 14.7317 26.5556 14.668 26.5556C10.8266 26.5031 7.37658 24.9363 4.90969 22.4506C4.90969 22.4506 4.90969 22.4418 4.90058 22.4418C4.6275 22.2055 4.86417 20.9451 5.96563 20.1486C7.34927 19.1421 10.6627 18.5119 10.6627 18.5119C10.6627 18.5119 11.9463 18.3106 16.7071 19.2646C19.4926 19.8248 21.6136 20.6388 22.7969 22.8445C23.0427 23.2996 23.2885 23.9998 22.4237 24.3674Z" fill="white"/>
<path d="M16.7345 19.1684C18.4823 19.5097 20.3484 19.8773 21.7866 20.9889C22.2691 21.3653 22.5877 21.9167 22.8517 22.4506C22.9791 22.7132 23.1066 22.9845 23.2067 23.2734C23.2613 23.4659 23.3432 23.6848 23.2977 23.9123C23.2886 23.9736 23.234 24.0524 23.1885 24.0961C22.9791 24.2975 22.7516 24.42 22.524 24.5775C21.1859 25.4703 19.6475 26.1005 18.0544 26.4331C14.5043 27.1771 10.6629 26.5994 7.54055 24.8051C6.50282 24.2012 5.54701 23.4659 4.72775 22.5994C4.63672 22.4944 4.63672 22.3193 4.63672 22.2056C4.64582 21.943 4.71864 21.6892 4.80967 21.4528C5.02814 20.9102 5.31034 20.3675 5.79279 19.9911C6.1387 19.7636 6.51192 19.571 6.89425 19.4134C8.09583 18.9233 9.36114 18.5819 10.6629 18.4419C10.7721 18.4331 10.7903 18.5819 10.6811 18.5994C9.43396 18.8445 8.19597 19.2121 7.03989 19.711C6.62116 19.9124 6.17511 20.0874 5.83831 20.4025C5.5197 20.7351 5.29213 21.1465 5.11007 21.5666C4.99173 21.8204 4.90981 22.2231 4.94622 22.4244C5.5197 23.0808 6.19332 23.6585 6.92156 24.1574C10.9086 26.8357 16.9621 27.0108 21.2041 24.7789C21.5864 24.5775 21.9596 24.35 22.3146 24.1136C22.4876 23.9999 22.6696 23.9036 22.8062 23.7723C22.8153 23.7635 22.8062 23.7723 22.8062 23.781C22.8062 23.7898 22.7971 23.7986 22.7971 23.7986C22.8062 23.6935 22.7698 23.5535 22.7242 23.4134C22.5604 22.9058 22.2964 22.3719 22.0142 21.908C21.5682 21.2165 20.8126 20.7789 20.048 20.4288C19.52 20.1924 18.9647 20.0086 18.4004 19.8336C17.836 19.6585 17.2625 19.5097 16.689 19.3784C16.5434 19.3434 16.5889 19.1421 16.7345 19.1684Z" fill="black"/>
<path d="M25.4471 29.7941H2.42578C2.42578 29.7941 2.799 26.188 4.21906 23.3083C4.73793 22.258 4.91088 20.7175 5.93951 20.0436C6.99545 19.3521 9.24388 18.8007 10.0267 18.7132C10.4637 18.6607 10.3635 18.6256 10.673 18.5469C10.7732 18.8095 11.7836 21.3828 14.205 22.328C16.2895 23.142 17.5275 22.5994 17.7187 21.6978C17.837 21.1202 17.4638 20.1749 17.2727 19.8685C17.1634 19.781 17.0906 19.6497 17.0542 19.5184L16.9814 19.2296C17.1452 19.1946 17.3 19.1508 17.4638 19.107C17.5458 19.1246 17.6368 19.1158 17.7096 19.1596C18.4743 19.5622 20.7773 20.1311 21.9789 21.3477C22.4522 21.8204 23.1896 23.5009 23.3079 24.595C23.6447 27.5972 25.4471 29.7941 25.4471 29.7941Z" fill="white"/>
<path d="M25.5739 29.8466C18.7467 29.8641 9.16135 29.9429 2.43429 29.9166C2.35236 29.9166 2.28864 29.8466 2.29774 29.7678C2.37967 29.1464 2.4889 28.5424 2.61634 27.9297C2.95315 26.258 3.46292 24.6125 4.22756 23.0807C4.53706 22.363 4.69181 21.6103 5.06503 20.9101C5.2835 20.4899 5.61121 20.0873 6.04815 19.851C6.74908 19.4484 7.52283 19.1945 8.29658 18.967C8.76083 18.8357 9.23418 18.7131 9.70753 18.6256C9.94421 18.5731 10.1809 18.5819 10.3994 18.4943C10.5177 18.4506 10.7453 18.3193 10.8181 18.4856C11.4826 20.1398 12.7661 21.7066 14.5594 22.293C15.4879 22.6168 17.0991 22.8882 17.5725 21.7941C17.7181 21.3827 17.5816 20.9363 17.4541 20.525C17.3813 20.3149 17.2903 20.0961 17.181 19.921L17.2083 19.9473C17.0445 19.816 16.9535 19.6059 16.9262 19.4134L16.8806 19.2383C16.8624 19.1683 16.9079 19.0983 16.9808 19.0808C17.1446 19.0545 17.3085 19.002 17.4723 18.9582C17.5634 18.9582 17.709 18.9757 17.8273 19.037C18.8287 19.4834 19.9665 19.8072 20.9223 20.3674C21.4594 20.6737 22.0056 21.0326 22.3515 21.549C22.9887 22.5731 23.3983 23.7372 23.5167 24.9188C23.7716 26.6081 24.4816 28.2273 25.5011 29.619L25.5375 29.6628L25.5557 29.6803L25.5648 29.689C25.5648 29.689 25.5648 29.6803 25.5739 29.7065C25.583 29.759 25.583 29.8203 25.5739 29.8466ZM25.3282 29.7328C25.31 29.759 25.31 29.8203 25.3282 29.8466C25.3464 29.8641 25.3373 29.8553 25.3373 29.8553L25.3282 29.8466L25.31 29.8203L25.2735 29.7766C24.7001 28.9363 24.2267 28.0348 23.8808 27.0982C23.6077 26.4068 23.4074 25.689 23.2982 24.9538C23.2618 24.6912 23.2163 24.3411 23.1526 24.0873C22.9432 23.247 22.6064 22.4068 22.1239 21.6803C21.9692 21.444 21.7416 21.2602 21.514 21.0851C20.7949 20.56 19.9483 20.2361 19.1109 19.921L18.2552 19.6147C17.973 19.5096 17.6362 19.3959 17.4632 19.2296H17.5361C17.3722 19.2821 17.2083 19.3258 17.0445 19.3608L17.1446 19.2033L17.1901 19.3783C17.2266 19.5359 17.263 19.6759 17.3904 19.781C17.3995 19.7897 17.4086 19.7985 17.4177 19.8072C17.6635 20.2361 17.8091 20.6825 17.882 21.1639C18.0367 21.9954 17.4905 22.6519 16.6531 22.8094C15.497 23.0282 14.1133 22.5468 13.1575 21.9254C11.956 21.1114 11.0912 19.9035 10.5632 18.5994L10.7271 18.6781C10.6451 18.7044 10.5905 18.7306 10.5086 18.7657C10.4267 18.8094 10.3265 18.8357 10.2355 18.8532C10.2446 18.9057 10.2173 18.7482 10.2537 18.9582C10.0808 18.9757 9.94421 18.9845 9.78035 19.0195C9.3161 19.0895 8.85185 19.1945 8.39671 19.3171C7.78681 19.4746 7.18602 19.6672 6.62164 19.921C6.33944 20.0523 6.06636 20.1924 5.85699 20.3762C5.63852 20.56 5.46556 20.805 5.31992 21.0676C4.89208 21.8641 4.68271 22.8182 4.24577 23.6234C3.33548 25.5753 2.82571 27.7022 2.57993 29.8291L2.44339 29.689C9.05212 29.6628 18.6102 29.6978 25.3282 29.7328Z" fill="black"/>
<path d="M18.0521 24.0699C17.7335 24.1574 16.623 23.0458 16.3954 22.8532C16.186 23.0808 14.7113 24.6826 13.9831 24.5775C13.182 24.4637 11.1339 23.1421 10.0961 21.0677C9.52266 19.9298 9.50446 19.2384 9.56818 18.862C9.59549 18.687 9.6501 18.5732 9.67741 18.5119C9.76844 18.3106 10.4239 17.5316 10.5877 17.5404V17.5491C10.6696 18.3894 10.9518 19.2034 11.4252 19.9123C12.0078 20.7789 12.9272 21.8204 14.2107 22.3193C16.2952 23.1333 17.3785 22.3281 17.5606 21.4266C17.6789 20.8489 17.4695 20.1662 17.2784 19.8598C17.1691 19.7723 17.0963 19.641 17.0599 19.5097L16.9871 19.2209C17.1509 19.1859 17.3057 19.1421 17.4695 19.0983C17.515 19.0808 17.5697 19.0721 17.6152 19.0546C17.6425 19.0896 17.6789 19.1246 17.7062 19.1596C18.0885 19.5797 18.4891 20.1574 18.7075 21.1377C19.0716 22.7044 18.4071 23.9648 18.0521 24.0699Z" fill="black"/>
<path d="M16.3711 22.8007C16.3711 22.8007 17.0356 23.1683 17.0174 23.4746C16.9992 23.781 17.1904 24.7525 17.1904 24.7525" stroke="black" stroke-width="0.0523908" stroke-miterlimit="10" stroke-linecap="round" stroke-linejoin="round"/>
<path d="M16.3591 23.9648C16.4798 23.9648 16.5776 23.8708 16.5776 23.7547C16.5776 23.6387 16.4798 23.5447 16.3591 23.5447C16.2384 23.5447 16.1406 23.6387 16.1406 23.7547C16.1406 23.8708 16.2384 23.9648 16.3591 23.9648Z" fill="black"/>
<path d="M16.4333 24.7876C16.554 24.7876 16.6518 24.6935 16.6518 24.5775C16.6518 24.4615 16.554 24.3674 16.4333 24.3674C16.3127 24.3674 16.2148 24.4615 16.2148 24.5775C16.2148 24.6935 16.3127 24.7876 16.4333 24.7876Z" fill="black"/>
<path d="M6.92916 29.7941L6.51953 26.5469" stroke="#544D4D" stroke-width="0.0523908" stroke-miterlimit="10" stroke-linecap="round" stroke-linejoin="round"/>
<path d="M22.8344 25.444C22.8344 25.444 22.5613 26.0829 22.6432 26.7219C22.7251 27.3608 22.9618 28.2973 22.625 29.7941" stroke="#544D4D" stroke-width="0.0523908" stroke-miterlimit="10" stroke-linecap="round" stroke-linejoin="round"/>
<path d="M10.5894 17.5403C10.5894 17.5403 13.5296 16.6651 17.626 19.0458C17.626 19.0458 18.7547 21.9692 18.0538 22.4156C17.3529 22.862 15.15 22.9057 13.6116 22.4156C12.0641 21.9342 10.0796 19.5272 10.5894 17.5403Z" fill="black"/>
<path d="M17.585 21.4967C17.3938 22.3982 16.1558 22.9409 14.0712 22.1269C11.9047 21.2866 10.9671 19.2823 10.7305 18.6871C12.014 16.3764 11.1219 14.7746 11.1219 14.7746C14.0803 14.5296 16.6656 17.8556 16.6656 17.8556L17.0661 19.5011C17.1025 19.6411 17.1753 19.7637 17.2846 19.8512C17.4757 20.175 17.7033 20.919 17.585 21.4967Z" fill="white"/>
<path d="M10.6868 18.7134C10.8597 18.4595 10.969 18.1619 11.0418 17.8731C11.1783 17.2692 11.2238 16.6565 11.2329 16.0438V15.8162C11.2056 15.5886 11.1237 15.3523 11.0327 15.1423C10.9143 14.8622 11.3422 14.6871 11.4787 14.9672C11.4969 15.0022 11.4969 15.0635 11.4969 15.0985C11.5242 16.2889 11.5788 17.8206 10.796 18.8096C10.7414 18.8621 10.6321 18.7834 10.6868 18.7134Z" fill="black"/>
<path d="M16.7665 17.838C16.903 17.9168 16.9485 18.0218 16.9667 18.1269C17.0213 18.3369 17.0031 18.5645 17.0578 18.7833C17.1033 18.9934 17.2398 19.1947 17.2762 19.4135C17.3217 19.6411 17.4583 20.1225 17.5129 20.3588C17.5311 20.4113 17.4947 20.4726 17.431 20.4814C17.3946 20.4901 17.3673 20.4814 17.3399 20.4638C17.2216 20.3676 17.167 20.2713 17.0942 20.1487C16.9758 19.9387 16.8939 19.7461 16.8211 19.5098C16.7574 19.2997 16.7847 19.0722 16.73 18.8534C16.6845 18.6433 16.5571 18.442 16.5116 18.2232C16.4843 18.1181 16.4752 18.0043 16.5571 17.873C16.6117 17.8205 16.7027 17.803 16.7665 17.838Z" fill="black"/>
<path d="M17.4213 20.1487C15.6826 20.0612 14.2626 19.536 12.8789 17.1641C14.0441 18.1531 15.4186 18.5295 16.866 18.7045L17.0572 19.5098C17.0936 19.6498 17.312 20.0612 17.4213 20.1487Z" fill="black"/>
<path d="M17.3484 19.825C17.6579 20.3851 17.84 21.0854 17.6488 21.7068C17.5031 22.1444 17.0844 22.4683 16.6293 22.5908C15.5733 22.8622 14.3535 22.4333 13.4159 21.9519C12.2599 21.3304 11.4042 20.2889 10.858 19.151C10.8216 19.0635 10.949 18.9935 11.0036 19.081C11.1948 19.4486 11.4133 19.8075 11.6591 20.1313C11.9048 20.4639 12.187 20.7703 12.5056 21.0416C13.4341 21.8468 14.6903 22.3458 15.9465 22.3458C17.2392 22.3107 17.7307 21.6543 17.4303 20.4464C17.3848 20.2539 17.312 20.0525 17.2118 19.8862C17.1572 19.8162 17.2938 19.7374 17.3484 19.825Z" fill="black"/>
<path d="M20.8727 9.31298C21.0366 10.0482 20.9091 10.5384 20.8363 12.569C20.7635 14.5646 20.1627 17.383 19.4253 18.0919C18.861 18.6258 17.0495 19.046 15.4382 18.6521C14.619 18.4508 13.9272 17.9957 13.3628 17.6718C12.6528 17.2604 12.0338 15.9913 11.524 15.1773C11.1235 14.5383 11.1599 15.3086 10.641 14.7572C9.92187 14.0044 9.05709 12.4902 9.48493 9.81188C10.1768 5.47054 13.7542 4.96289 16.4032 5.44428C19.0703 5.92568 20.4358 7.37863 20.8727 9.31298Z" fill="white"/>
<path d="M11.0947 15.5274C10.8854 15.1948 10.6123 14.8972 10.3665 14.5821C10.0024 14.1007 9.7293 13.5493 9.54724 12.9803C8.75528 10.5471 9.23774 7.36111 11.6318 5.92567C13.8074 4.59526 18.0312 5.07666 19.7971 6.89722C20.4617 7.55367 20.8895 8.41143 21.0716 9.30421C21.0807 9.35673 21.108 9.453 21.1171 9.50552C21.1262 9.54928 21.1535 9.6018 21.1444 9.65432C21.1262 9.84688 21.0898 10.0394 21.0716 10.232C20.935 11.3961 20.9714 12.5865 20.8167 13.7506C20.6801 14.976 20.4981 16.2013 20.1157 17.3829C19.9974 17.7418 19.7698 18.0657 19.4694 18.302C18.7958 18.8446 17.9128 19.0285 17.0663 19.0635C15.3731 19.1422 13.6527 18.5646 12.6695 17.1904C12.6331 17.1379 12.706 17.0766 12.7515 17.1291C13.5707 17.9781 14.6813 18.5208 15.8647 18.6433C17.1755 18.7921 19.1508 18.6783 19.7243 17.3304C20.3888 15.4223 20.7347 13.4005 20.7712 11.3961C20.7712 10.906 20.7438 10.4158 20.7438 9.9169C20.7438 9.85563 20.753 9.71559 20.753 9.65432C20.753 9.64556 20.753 9.65432 20.753 9.65432C20.753 9.66307 20.753 9.66307 20.753 9.65432C20.6801 9.47926 20.6528 9.2867 20.5982 9.11165C20.3979 8.38518 20.0338 7.69371 19.515 7.14229C17.7945 5.28672 13.9622 4.82283 11.8139 6.21451C10.1116 7.29984 9.65647 9.38298 9.53814 11.221C9.438 12.5952 9.85674 13.9431 10.94 14.8884L11.3678 15.3173C11.5499 15.5099 11.2404 15.7374 11.0947 15.5274Z" fill="black"/>
<path d="M12.1686 12.7439C12.1686 12.7439 11.8864 11.431 10.5573 11.5886C9.41037 11.7286 9.00984 14.3719 11.6133 15.1071" fill="white"/>
<path d="M11.4959 13.9606C11.2865 13.8469 11.1409 13.6543 11.1318 13.418C11.1409 13.2429 11.1682 13.0416 11.1227 12.8666C11.0954 12.7003 10.9133 12.6565 10.7768 12.6653C10.6311 12.6915 10.5401 12.8666 10.5128 13.0066C10.5128 13.0154 10.5037 13.0416 10.5037 13.0504C10.4946 13.0941 10.4217 13.0941 10.4035 13.0504C10.2852 12.709 10.5492 12.3326 10.9315 12.3764C11.4686 12.4114 11.5414 12.9541 11.4413 13.3655C11.3867 13.5405 11.4595 13.6981 11.5596 13.8469L11.5778 13.8731C11.6233 13.9256 11.5505 13.9957 11.4959 13.9606Z" fill="black"/>
<path d="M18.7791 11.8161C18.9156 12.4376 19.1705 13.0153 19.4891 13.5579C19.7713 14.2231 19.0431 14.8533 18.3968 14.8271C18.3239 14.8271 18.3148 14.7308 18.3785 14.7133C18.7882 14.5908 19.1614 14.3282 19.2251 13.9255C19.2524 13.803 19.216 13.698 19.1523 13.5929C18.8519 13.0503 18.6698 12.4288 18.7154 11.8161C18.7154 11.7724 18.7791 11.7724 18.7791 11.8161Z" fill="black"/>
<path d="M12.1224 12.7528C11.9131 12.2364 11.4579 11.7462 10.848 11.755C10.7934 11.7462 10.7024 11.7637 10.6478 11.7637C10.493 11.7725 10.3656 11.825 10.2472 11.93C9.66464 12.4902 9.76478 13.4793 10.2381 14.1007C10.402 14.3195 10.6113 14.5121 10.848 14.6696C11.0847 14.8272 11.3487 14.9497 11.6309 15.0547C11.6946 15.0723 11.6673 15.1685 11.6036 15.1598C10.9937 15.0372 10.4111 14.7484 10.0106 14.267C9.39156 13.5493 9.26411 12.3502 10.0015 11.65C10.1653 11.5099 10.3929 11.4049 10.6205 11.4049C10.6933 11.4049 10.8025 11.3874 10.8753 11.4049C11.2577 11.4224 11.6218 11.6062 11.8584 11.895C12.0678 12.1401 12.1862 12.4377 12.2226 12.7353C12.2226 12.7878 12.1406 12.8053 12.1224 12.7528Z" fill="black"/>
<path d="M18.0891 15.7023C17.5065 16.2362 16.4051 15.8074 16.1138 15.1597C16.0773 15.0809 16.1684 15.0109 16.2412 15.0459C16.3959 15.1247 16.5325 15.2034 16.6781 15.2647C17.0969 15.4485 17.5338 15.5973 17.9981 15.5535C18.0891 15.536 18.1528 15.6411 18.0891 15.7023Z" fill="#040404"/>
<path d="M16.7241 10.8884C16.9243 10.9146 17.0791 10.7133 17.0063 10.5207C16.9698 10.4157 16.9061 10.3194 16.806 10.2582C16.4965 10.0744 15.3404 10.0569 14.7305 10.477C14.1843 10.8621 15.8138 10.7658 16.7241 10.8884Z" fill="black"/>
<path d="M19.2464 10.9846C19.0825 10.9846 18.9824 10.7833 19.0643 10.617C19.1098 10.5294 19.1736 10.4507 19.2646 10.4069C19.5468 10.2756 20.3023 10.3544 20.6391 10.8008C20.9395 11.1947 20.0019 10.9758 19.2464 10.9846Z" fill="black"/>
<path d="M16.3885 12.0174C15.9242 11.8248 15.3962 11.8773 14.9138 11.9824C14.8592 11.9999 14.8228 11.9298 14.8683 11.8948C15.287 11.5622 16.079 11.5185 16.4158 11.9736C16.4431 11.9911 16.4249 12.0261 16.3885 12.0174Z" fill="black"/>
<path d="M19.9641 12.2013C19.7456 12.0525 19.427 12.0788 19.1722 12.105C19.0811 12.1138 18.9901 12.1313 18.89 12.1575C18.8627 12.1663 18.8353 12.1225 18.8536 12.105L18.8718 12.0875C19.0993 11.8599 19.4543 11.8074 19.7638 11.9212C19.8731 11.965 19.9823 12.0262 20.0369 12.1488C20.0642 12.1925 20.0005 12.2363 19.9641 12.2013Z" fill="black"/>
<path d="M20.6363 14.2406C20.6545 14.757 20.6818 15.0896 20.6818 15.0896L21.7104 14.8183C21.7104 14.8183 21.4009 13.1028 21.5557 11.6236C21.8561 8.8227 21.5557 8.03496 21.5557 8.03496C21.4009 7.30848 20.9003 6.66078 19.7897 6.46822C19.4529 6.26691 19.0797 6.10936 18.6701 5.97807C17.2045 5.47917 13.9821 4.4376 11.5061 6.00433C9.03006 7.57106 8.93903 10.4857 8.60222 12.4288C8.26541 14.3719 6.0625 15.7898 6.0625 15.7898L6.57226 16.4901C6.84535 16.6826 7.58269 15.8161 7.70103 15.7898C7.81937 15.7636 7.03651 16.6739 7.03651 16.6739C7.23678 17.4529 8.09245 17.908 8.09245 17.908C8.09245 17.908 9.42148 17.0852 9.14839 17.4616C8.87531 17.838 8.36554 18.1356 8.36554 18.1356C8.36554 18.1356 9.69457 19.2647 10.2407 19.1684C10.7869 19.0721 11.5698 17.873 11.5061 18.1356C11.4514 18.3981 11.0054 19.3609 11.0054 19.3609L11.7245 19.7548C13.9912 19.0546 12.1888 16.3063 13.4814 14.617C14.7649 12.9277 13.1264 12.0262 14.155 11.466C14.419 11.3172 14.6739 11.1597 14.9014 10.9846L16.3761 11.2297C16.3761 11.2297 17.3319 11.2122 17.0588 9.37412C16.9587 8.70016 17.1954 7.98244 17.2864 7.74612C17.2955 7.74612 17.2955 7.74612 17.3046 7.74612C17.2682 7.98244 17.2045 8.68266 17.4139 9.58418C17.7052 10.8533 16.7949 11.3435 16.7949 11.3435L17.7143 11.6236C18.6519 11.1772 17.8963 9.75049 17.7143 8.61264C17.6596 8.24502 17.7325 8.01745 17.8599 7.88616C18.4971 8.06997 18.9067 8.28003 18.9431 8.09623C20.4451 8.45509 20.4633 10.3544 20.5089 10.4069C20.4906 10.757 20.4451 11.3522 20.436 12.1225C20.436 12.4813 20.4724 13.1728 20.4451 13.5754C20.4178 14.0656 20.3723 14.5207 20.2995 14.9758C20.1629 15.6761 19.9536 16.4113 19.6532 16.8664C19.0524 17.768 18.579 18.5294 17.7143 18.9146C16.8586 19.2909 15.8846 19.3697 15.8846 19.3697C15.8846 19.3697 16.1577 19.536 16.804 19.571C17.4503 19.606 17.9145 19.3609 18.3879 19.2909C18.8612 19.2122 19.9445 19.501 19.9445 19.501C20.0628 19.2997 19.9809 18.5557 20.0992 18.7045C20.2176 18.8533 20.1994 19.501 20.1994 19.501L21.1734 19.6673C21.3827 19.1946 21.41 18.3544 21.41 18.3544C21.41 18.2143 21.4009 18.0743 21.3918 17.9168C21.2371 16.4288 20.6272 16.175 20.6363 14.2406Z" fill="black"/>
<path d="M16.8579 13.7943C16.4392 13.803 15.1465 13.8118 14.746 13.8205C14.0542 13.8293 13.5353 13.2516 13.599 12.5951C13.6081 12.3763 13.599 12.07 13.6081 11.8512C13.6264 11.2822 14.1543 10.8008 14.746 10.8183L16.2844 10.8358C16.4027 10.8358 16.7396 10.8446 16.8579 10.8446C17.3495 10.8358 17.8137 11.1859 17.9229 11.6498C17.9594 11.7811 17.9502 11.9212 17.9502 12.035V12.7789C17.9411 13.3304 17.4314 13.803 16.8579 13.7943ZM16.8579 13.6017C17.3312 13.6192 17.7682 13.2253 17.7773 12.7702C17.7864 12.5339 17.7773 12.28 17.7773 12.035C17.8319 11.501 17.4132 11.0109 16.8488 11.0284C16.4574 11.0372 15.1465 11.0459 14.7369 11.0547C14.2454 11.0547 13.8266 11.4835 13.863 11.9562C13.863 12.0175 13.863 12.175 13.863 12.2363C13.8721 12.4288 13.8448 12.7614 13.8903 12.9365C13.9814 13.3041 14.3455 13.5842 14.7369 13.5842H14.9281C15.1921 13.5842 16.5848 13.6017 16.8579 13.6017Z" fill="black"/>
<path d="M20.528 11.0722L19.8089 11.081C19.6086 11.0898 19.3719 11.0547 19.199 11.1685C19.0351 11.2736 18.9623 11.4661 18.9714 11.6499C18.9714 11.8775 18.9714 12.1138 18.9623 12.3414L18.9532 12.3064C19.0806 12.7353 19.2536 13.1466 19.5176 13.5055L19.4265 13.453C19.4994 13.4705 19.6268 13.4705 19.6996 13.4705C19.9727 13.4792 20.2913 13.4967 20.5644 13.4967C20.8193 13.4967 21.0651 13.3129 21.1197 13.0679C21.1379 12.9978 21.1379 12.8753 21.1379 12.8053C21.1379 12.4289 21.147 12.0613 21.1288 11.6849C21.147 11.3523 20.883 11.0547 20.528 11.0722ZM20.528 10.8097C21.0105 10.8097 21.3473 11.2561 21.2653 11.6937C21.2471 12.0701 21.2562 12.4377 21.2562 12.814C21.3018 13.2517 21.0287 13.6455 20.5553 13.6805C20.355 13.6893 20.1639 13.6893 19.9727 13.6981C19.8726 13.6981 19.6268 13.7156 19.5358 13.7156C19.4903 13.7243 19.4174 13.7156 19.3719 13.7156C19.3355 13.7156 19.2991 13.6893 19.2809 13.663C18.9987 13.2604 18.7984 12.814 18.6801 12.3501C18.6801 12.0525 18.6528 11.755 18.6801 11.4574C18.7347 11.1073 19.0624 10.8097 19.4356 10.8009C19.6905 10.7922 20.2731 10.8097 20.528 10.8097Z" fill="black"/>
<path d="M17.8507 11.6149C18.0965 11.5099 18.3696 11.4661 18.6426 11.4836C18.7337 11.4924 18.8247 11.5186 18.9066 11.5886L19.025 11.6849C19.1433 11.7812 18.9977 11.9475 18.8793 11.8512C18.7337 11.7287 18.5607 11.7462 18.3878 11.7549C18.2148 11.7724 18.051 11.8075 17.8871 11.8687C17.7324 11.93 17.6322 11.7112 17.7779 11.6412L17.8507 11.6149Z" fill="black"/>
<path d="M13.7531 11.9299C13.6893 12.07 13.6165 12.0875 13.4982 12.0787L13.2342 12.0875C12.7062 12.0875 12.1692 12.0787 11.6412 12C11.4591 11.9912 11.45 11.7461 11.6321 11.7374L13.744 11.6674C13.8077 11.6674 13.8532 11.7286 13.8259 11.7811L13.7531 11.9299Z" fill="black"/>
</g>
</svg>
