<svg width="40" height="40" viewBox="0 0 40 40" fill="none" xmlns="http://www.w3.org/2000/svg">
<path d="M33.3333 28.3334C34.2174 28.3334 35.0652 27.9822 35.6904 27.3571C36.3155 26.732 36.6667 25.8841 36.6667 25.0001V15.0001C36.6667 14.116 36.3155 13.2682 35.6904 12.6431C35.0652 12.0179 34.2174 11.6667 33.3333 11.6667H26.8333C26.2759 11.6722 25.7259 11.5378 25.2338 11.2757C24.7418 11.0137 24.3233 10.6324 24.0167 10.1667L22.6667 8.16675C22.3632 7.70586 21.95 7.32755 21.4642 7.06574C20.9784 6.80394 20.4352 6.66684 19.8833 6.66675H13.3333C12.4493 6.66675 11.6014 7.01794 10.9763 7.64306C10.3512 8.26818 10 9.11603 10 10.0001V25.0001C10 25.8841 10.3512 26.732 10.9763 27.3571C11.6014 27.9822 12.4493 28.3334 13.3333 28.3334H33.3333Z" stroke="#323232" stroke-width="3" stroke-linecap="round" stroke-linejoin="round"/>
<path d="M3.33203 13.3333V31.6666C3.33203 32.5506 3.68322 33.3985 4.30834 34.0236C4.93346 34.6487 5.78131 34.9999 6.66536 34.9999H29.9987" stroke="#323232" stroke-width="3" stroke-linecap="round" stroke-linejoin="round"/>
</svg>
