<svg width="1512" height="827" viewBox="0 0 1512 827" fill="none" xmlns="http://www.w3.org/2000/svg">
<path d="M1613.51 858.001C1689.85 507.879 1750.65 -191.809 1613.51 51C1473.01 266.5 1363.5 563.001 -44.1367 663.124L-61.6367 858.001H1613.51Z" fill="#343434"/>
<path d="M1595.75 269.357C1433.4 647.303 411.919 706.793 -44.1367 734.623L-61.6367 962H1613.49C1689.83 612.05 1799.61 -40.9991 1595.75 269.357Z" fill="#404040"/>
<path d="M1594.13 436.713C1431.78 814.586 408.915 759.799 -47.1367 787.623L-61.6367 1072H1613.48C1689.82 722.117 1797.98 126.417 1594.13 436.713Z" fill="#4D4D4D"/>
<path d="M1594.13 566.713C1431.78 944.586 416.915 800.799 -39.1367 828.623L-61.6367 1202H1613.48C1689.82 852.117 1797.98 256.417 1594.13 566.713Z" fill="#595959"/>
</svg>
