<svg width="40" height="40" viewBox="0 0 40 40" fill="none" xmlns="http://www.w3.org/2000/svg">
<path d="M31.6654 23.3333C34.1487 20.9 36.6654 17.9833 36.6654 14.1667C36.6654 11.7355 35.6996 9.40394 33.9805 7.68485C32.2614 5.96577 29.9298 5 27.4987 5C24.5654 5 22.4987 5.83333 19.9987 8.33333C17.4987 5.83333 15.432 5 12.4987 5C10.0675 5 7.73597 5.96577 6.01689 7.68485C4.2978 9.40394 3.33203 11.7355 3.33203 14.1667C3.33203 18 5.83203 20.9167 8.33203 23.3333L19.9987 35L31.6654 23.3333Z" stroke="#323232" stroke-width="3" stroke-linecap="round" stroke-linejoin="round"/>
<path d="M19.9981 8.33325L15.0647 13.2666C14.7261 13.6028 14.4573 14.0026 14.2739 14.4431C14.0905 14.8836 13.9961 15.3561 13.9961 15.8333C13.9961 16.3104 14.0905 16.7829 14.2739 17.2234C14.4573 17.6639 14.7261 18.0637 15.0647 18.3999C16.4314 19.7666 18.6147 19.8166 20.0647 18.5166L23.5147 15.3499C24.3795 14.5652 25.5054 14.1306 26.6731 14.1306C27.8407 14.1306 28.9666 14.5652 29.8314 15.3499L34.7647 19.7833" stroke="#323232" stroke-width="3" stroke-linecap="round" stroke-linejoin="round"/>
<path d="M30.0013 25.0001L26.668 21.6667" stroke="#323232" stroke-width="3" stroke-linecap="round" stroke-linejoin="round"/>
<path d="M25.0013 30.0001L21.668 26.6667" stroke="#323232" stroke-width="3" stroke-linecap="round" stroke-linejoin="round"/>
</svg>
