<svg width="113" height="34" viewBox="0 0 113 34" fill="none" xmlns="http://www.w3.org/2000/svg">
<g clip-path="url(#clip0_1186_26975)">
<rect width="113" height="34" rx="17" fill="#2C2C2C"/>
<g style="mix-blend-mode:lighten">
<path d="M-8 16.9999C-8 7.61106 1.35736 -8.01086e-05 12.9003 -8.01086e-05H97.7307C109.274 -8.01086e-05 118.631 7.61106 118.631 16.9999C118.631 26.3887 109.274 33.9998 97.7307 33.9998H12.9003C1.35736 33.9998 -8 26.3887 -8 16.9999Z" fill="#2C2C2C"/>
<path d="M-8 16.9999C-8 7.61106 1.35736 -8.01086e-05 12.9003 -8.01086e-05H97.7307C109.274 -8.01086e-05 118.631 7.61106 118.631 16.9999C118.631 26.3887 109.274 33.9998 97.7307 33.9998H12.9003C1.35736 33.9998 -8 26.3887 -8 16.9999Z" fill="#2C2C2C"/>
<path d="M67.9699 -31L82.8777 -8.79922L37.7958 59.5851L22.888 37.3843L67.9699 -31Z" fill="#404040"/>
<path d="M94.5419 -26.4561L109.37 -4.37328L64.2885 64.011L49.46 41.9282L94.5419 -26.4561Z" fill="#4D4D4D"/>
<path d="M123.222 -25.3916L138 -3.3843L92.9181 65L78.1402 42.9927L123.222 -25.3916Z" fill="#595959" fill-opacity="0.6"/>
</g>
</g>
<defs>
<clipPath id="clip0_1186_26975">
<rect width="113" height="34" rx="17" fill="white"/>
</clipPath>
</defs>
</svg>
