<svg width="40" height="40" viewBox="0 0 40 40" fill="none" xmlns="http://www.w3.org/2000/svg">
<path d="M22.3346 3.33325H10.0013C9.11725 3.33325 8.2694 3.68444 7.64428 4.30956C7.01916 4.93468 6.66797 5.78253 6.66797 6.66659V33.3333C6.66797 34.2173 7.01916 35.0652 7.64428 35.6903C8.2694 36.3154 9.11725 36.6666 10.0013 36.6666H30.0013C30.8854 36.6666 31.7332 36.3154 32.3583 35.6903C32.9834 35.0652 33.3346 34.2173 33.3346 33.3333V20.9999" stroke="#323232" stroke-width="3" stroke-linecap="round" stroke-linejoin="round"/>
<path d="M3.33203 10H9.9987" stroke="#323232" stroke-width="3" stroke-linecap="round" stroke-linejoin="round"/>
<path d="M3.33203 16.6667H9.9987" stroke="#323232" stroke-width="3" stroke-linecap="round" stroke-linejoin="round"/>
<path d="M3.33203 23.3333H9.9987" stroke="#323232" stroke-width="3" stroke-linecap="round" stroke-linejoin="round"/>
<path d="M3.33203 30H9.9987" stroke="#323232" stroke-width="3" stroke-linecap="round" stroke-linejoin="round"/>
<path d="M35.6283 9.37659C36.2923 8.71266 36.6652 7.81219 36.6652 6.87326C36.6652 5.93432 36.2923 5.03385 35.6283 4.36992C34.9644 3.706 34.0639 3.33301 33.125 3.33301C32.1861 3.33301 31.2856 3.706 30.6217 4.36992L22.2717 12.7233C21.8754 13.1193 21.5854 13.6088 21.4283 14.1466L20.0333 18.9299C19.9915 19.0733 19.989 19.2254 20.0261 19.3701C20.0631 19.5148 20.1384 19.6469 20.2441 19.7525C20.3497 19.8581 20.4818 19.9334 20.6265 19.9705C20.7712 20.0076 20.9233 20.0051 21.0667 19.9633L25.85 18.5683C26.3878 18.4112 26.8773 18.1212 27.2733 17.7249L35.6283 9.37659Z" stroke="#323232" stroke-width="3" stroke-linecap="round" stroke-linejoin="round"/>
</svg>
