<svg width="40" height="40" viewBox="0 0 40 40" fill="none" xmlns="http://www.w3.org/2000/svg">
<path d="M35.2886 11.3534C36.1698 10.4724 36.6649 9.27751 36.6651 8.03149C36.6652 6.78546 36.1704 5.59041 35.2894 4.70923C34.4085 3.82805 33.2135 3.33292 31.9675 3.33276C30.7215 3.33261 29.5264 3.82744 28.6453 4.7084L6.40192 26.9567C6.01495 27.3426 5.72878 27.8176 5.56859 28.3401L3.36692 35.5934C3.32385 35.7375 3.32059 35.8906 3.35751 36.0365C3.39442 36.1823 3.47012 36.3154 3.57658 36.4217C3.68304 36.528 3.81629 36.6035 3.96219 36.6402C4.10808 36.6769 4.26119 36.6734 4.40526 36.6301L11.6603 34.4301C12.1822 34.2713 12.6572 33.9869 13.0436 33.6017L35.2886 11.3534Z" stroke="#323232" stroke-width="3" stroke-linecap="round" stroke-linejoin="round"/>
<path d="M25 8.33325L31.6667 14.9999" stroke="#323232" stroke-width="3" stroke-linecap="round" stroke-linejoin="round"/>
</svg>
