<svg width="40" height="40" viewBox="0 0 40 40" fill="none" xmlns="http://www.w3.org/2000/svg">
<path d="M26.6654 35V31.6667C26.6654 29.8986 25.963 28.2029 24.7127 26.9526C23.4625 25.7024 21.7668 25 19.9987 25H9.9987C8.23059 25 6.5349 25.7024 5.28465 26.9526C4.03441 28.2029 3.33203 29.8986 3.33203 31.6667V35" stroke="#323232" stroke-width="3" stroke-linecap="round" stroke-linejoin="round"/>
<path d="M14.9987 18.3333C18.6806 18.3333 21.6654 15.3486 21.6654 11.6667C21.6654 7.98477 18.6806 5 14.9987 5C11.3168 5 8.33203 7.98477 8.33203 11.6667C8.33203 15.3486 11.3168 18.3333 14.9987 18.3333Z" stroke="#323232" stroke-width="3" stroke-linecap="round" stroke-linejoin="round"/>
<path d="M26.668 18.3333L30.0013 21.6667L36.668 15" stroke="#323232" stroke-width="3" stroke-linecap="round" stroke-linejoin="round"/>
</svg>
