<svg width="40" height="40" viewBox="0 0 40 40" fill="none" xmlns="http://www.w3.org/2000/svg">
<path d="M20 25.0001L23.3333 28.3334L30 21.6667" stroke="#323232" stroke-width="3" stroke-linecap="round" stroke-linejoin="round"/>
<path d="M33.332 13.3333H16.6654C14.8244 13.3333 13.332 14.8256 13.332 16.6666V33.3333C13.332 35.1742 14.8244 36.6666 16.6654 36.6666H33.332C35.173 36.6666 36.6654 35.1742 36.6654 33.3333V16.6666C36.6654 14.8256 35.173 13.3333 33.332 13.3333Z" stroke="#323232" stroke-width="3" stroke-linecap="round" stroke-linejoin="round"/>
<path d="M6.66536 26.6666C4.83203 26.6666 3.33203 25.1666 3.33203 23.3333V6.66659C3.33203 4.83325 4.83203 3.33325 6.66536 3.33325H23.332C25.1654 3.33325 26.6654 4.83325 26.6654 6.66659" stroke="#323232" stroke-width="3" stroke-linecap="round" stroke-linejoin="round"/>
</svg>
