<svg width="18" height="18" viewBox="0 0 18 18" fill="none" xmlns="http://www.w3.org/2000/svg">
<path d="M7.26159 11.4792C7.19835 11.234 7.07058 11.0103 6.89157 10.8313C6.71255 10.6523 6.48885 10.5245 6.24371 10.4613L1.89809 9.34072C1.82395 9.31968 1.75869 9.27502 1.71223 9.21354C1.66576 9.15205 1.64062 9.07708 1.64062 9.00001C1.64062 8.92294 1.66576 8.84798 1.71223 8.78649C1.75869 8.725 1.82395 8.68035 1.89809 8.65931L6.24371 7.53801C6.48876 7.47483 6.71241 7.34717 6.89141 7.16829C7.07042 6.98941 7.19824 6.76585 7.26159 6.52085L8.38217 2.17522C8.403 2.10079 8.44761 2.03521 8.50919 1.9885C8.57077 1.94179 8.64594 1.9165 8.72323 1.9165C8.80052 1.9165 8.8757 1.94179 8.93728 1.9885C8.99886 2.03521 9.04346 2.10079 9.06429 2.17522L10.1842 6.52085C10.2474 6.76598 10.3752 6.98969 10.5542 7.1687C10.7332 7.34771 10.9569 7.47548 11.202 7.53872L15.5477 8.6586C15.6224 8.67921 15.6883 8.72377 15.7353 8.78544C15.7822 8.84712 15.8077 8.92249 15.8077 9.00001C15.8077 9.07753 15.7822 9.15291 15.7353 9.21458C15.6883 9.27626 15.6224 9.32082 15.5477 9.34143L11.202 10.4613C10.9569 10.5245 10.7332 10.6523 10.5542 10.8313C10.3752 11.0103 10.2474 11.234 10.1842 11.4792L9.06359 15.8248C9.04276 15.8992 8.99815 15.9648 8.93657 16.0115C8.87499 16.0582 8.79982 16.0835 8.72252 16.0835C8.64523 16.0835 8.57006 16.0582 8.50848 16.0115C8.4469 15.9648 8.40229 15.8992 8.38146 15.8248L7.26159 11.4792Z" fill="white"/>
</svg>
